<svg width="506" height="503" viewBox="0 0 506 503" fill="none" xmlns="http://www.w3.org/2000/svg">
<path fill-rule="evenodd" clip-rule="evenodd" d="M13.1246 3.33826C-10.5464 15.4113 -2.07336 46.4673 44.9076 119.833C75.2686 167.245 72.3716 161.295 69.4986 170.333C41.7586 257.609 66.5466 339.736 133.448 382.205C135.018 383.202 137.673 385.326 139.346 386.925C141.019 388.525 143.2 389.833 144.192 389.833C145.184 389.833 147.525 391.408 149.395 393.333C151.264 395.258 153.791 396.833 155.009 396.833C158.066 396.833 161.092 398.604 161.092 400.393C161.092 401.932 165.661 404.218 167.037 403.367C168.513 402.455 177.725 407.081 178.657 409.203C179.377 410.844 180.51 411.349 183.592 411.404C188.224 411.486 192.092 412.589 192.092 413.829C192.092 416.021 195.433 417.917 198.217 417.305C201.74 416.532 210.56 419.301 213.299 422.04C214.686 423.427 216.004 423.821 217.774 423.377C220.168 422.776 230.486 425.16 232.592 426.801C233.142 427.229 235.842 427.832 238.592 428.14C241.342 428.448 249.564 429.851 256.862 431.258C292.44 438.118 339.523 440.092 376.283 436.265C382.974 435.569 382.974 435.569 378.486 449.272C356.938 515.072 372.379 519.029 442.669 465.72C455.277 456.158 473.017 443.384 482.092 437.334C508.979 419.408 512.266 409.499 495.092 398.147C480.889 388.76 476.022 385.28 453.592 368.469C425.01 347.047 411.686 338.087 399.678 332.209C394.775 329.809 390.015 327.168 389.099 326.339C386.049 323.579 374.501 327.39 371.975 331.991C368.431 338.443 371.482 360.234 379.023 382.325C382.684 393.053 382.623 392.284 379.842 392.542C378.604 392.656 374.892 393.157 371.592 393.654C367.794 394.225 365.138 394.2 364.356 393.584C363.153 392.637 361.687 392.758 351.886 394.612C348.247 395.301 347.063 395.2 346.667 394.168C345.98 392.379 341.679 392.478 338.025 394.368C334.81 396.03 317.774 395.497 315.443 393.661C314.812 393.164 311.437 393.039 307.943 393.384C285.08 395.642 228.742 381.81 195.093 365.676C128.826 333.903 98.0366 280.76 106.417 212.622C107.243 205.91 107.243 205.91 111.996 211.622C132.389 236.125 164.942 256.095 196.952 263.74C201.284 264.775 205.823 266.154 207.039 266.804C208.254 267.455 209.845 267.758 210.573 267.479C212.834 266.611 226.3 268.898 227.807 270.405C229.579 272.177 230.882 272.191 234.171 270.475C237.165 268.912 242.512 269.429 244.182 271.442C245.745 273.325 248.002 273.185 251.616 270.981C253.391 269.899 258.56 268.643 264.124 267.943C269.34 267.287 275.851 266.177 278.593 265.477C282.83 264.397 283.971 264.43 286.187 265.702C289.966 267.871 321.365 249.816 333.816 238.316C364.855 209.646 370.625 168.055 350.395 118.833C329.815 68.7633 249.867 43.6843 181.092 65.7243C177.517 66.8703 173.641 67.8133 172.479 67.8203C164.287 67.8703 125.869 92.1743 110.959 106.738C99.5916 117.842 99.5916 117.842 97.2826 115.087C92.2616 109.097 80.2306 87.4003 70.5656 66.9043C46.3546 15.5643 38.3566 2.83326 30.3126 2.83326C27.9986 2.83326 25.8166 2.20626 25.0916 1.33326C23.2766 -0.853738 20.3976 -0.371738 13.1246 3.33826ZM25.9016 11.9683C26.9656 13.3663 26.6326 13.9063 23.6146 15.6873C20.0826 17.7713 20.0826 17.7713 22.1566 13.7053C23.2976 11.4693 24.3266 9.79526 24.4446 9.98626C24.5616 10.1773 25.2176 11.0693 25.9016 11.9683ZM35.0086 27.1163C34.7796 27.2723 33.6916 28.0593 32.5916 28.8663C30.7416 30.2233 30.6946 30.2023 31.9636 28.5833C32.7186 27.6213 33.8066 26.8333 34.3806 26.8333C34.9546 26.8333 35.2376 26.9603 35.0086 27.1163ZM17.3886 32.2303C15.7266 34.4473 14.0916 34.7923 14.0916 32.9273C14.0916 32.3073 17.3486 30.2523 18.8886 29.9013C19.0516 29.8633 18.3766 30.9123 17.3886 32.2303ZM48.0916 53.3333C48.0916 54.1583 47.9036 54.8333 47.6736 54.8333C47.4436 54.8333 46.4986 55.1233 45.5746 55.4783C44.0856 56.0493 44.0466 55.8773 45.2336 53.9783C46.7926 51.4823 48.0916 51.1883 48.0916 53.3333ZM30.4996 58.3333C28.8546 60.8443 27.0916 61.6493 27.0916 59.8903C27.0916 59.0943 30.9066 55.8333 31.8376 55.8333C32.0026 55.8333 31.4006 56.9583 30.4996 58.3333ZM223.009 64.1163C222.78 64.2723 221.692 65.0593 220.592 65.8663C218.742 67.2233 218.695 67.2023 219.964 65.5833C220.719 64.6203 221.807 63.8333 222.381 63.8333C222.955 63.8333 223.238 63.9603 223.009 64.1163ZM268.092 68.9153C268.092 69.3253 265.054 71.3493 261.342 73.4133C257.63 75.4763 253.512 77.8613 252.192 78.7123C250.284 79.9423 250.754 78.8143 254.49 73.1963C258.832 66.6653 268.092 63.7523 268.092 68.9153ZM192.628 70.0333C191.548 70.6593 183.11 75.5623 173.878 80.9293C164.646 86.2953 157.092 90.5613 157.092 90.4093C157.092 88.5283 178.578 74.1403 184.889 71.7943C192.972 68.7893 195.935 68.1153 192.628 70.0333ZM283.092 74.2263C283.092 74.4423 282.394 74.8873 281.54 75.2153C280.65 75.5563 280.249 75.3883 280.599 74.8223C281.186 73.8713 283.092 73.4163 283.092 74.2263ZM59.5266 75.7283C59.8316 76.2213 59.4306 76.8733 58.6366 77.1773C57.6736 77.5473 57.3786 77.2493 57.7496 76.2823C58.3946 74.6023 58.7606 74.4883 59.5266 75.7283ZM235.537 84.2183C231.605 90.1403 231.465 90.2063 220.646 91.1843C217.661 91.4543 216.274 91.2943 217.146 90.7793C241.996 76.1333 240.567 76.6433 235.537 84.2183ZM43.0916 80.2113C43.0916 80.4183 42.3036 81.2063 41.3416 81.9613C39.7556 83.2043 39.7206 83.1693 40.9636 81.5833C42.2706 79.9173 43.0916 79.3883 43.0916 80.2113ZM297.092 81.4143C297.092 81.6163 295.715 82.4943 294.032 83.3643C290.971 84.9473 290.971 84.9473 292.607 82.4503C293.928 80.4343 297.092 79.7033 297.092 81.4143ZM254.092 89.2743C254.092 89.5173 253.572 90.0363 252.937 90.4283C252.222 90.8713 252.054 90.7033 252.497 89.9883C253.209 88.8353 254.092 88.4403 254.092 89.2743ZM309.822 90.6453C310.678 91.1893 310.147 91.9603 308.072 93.1863C304.873 95.0763 304.501 94.8053 306.127 91.7673C307.254 89.6613 307.944 89.4523 309.822 90.6453ZM272.508 93.0833C271.466 94.3203 270.595 95.4213 270.574 95.5293C270.552 95.6363 269.922 95.3463 269.174 94.8843C268.143 94.2463 268.513 93.6643 270.703 92.4783C274.556 90.3913 274.726 90.4483 272.508 93.0833ZM291.473 97.0833C288.282 102.496 287.909 102.806 285.878 101.718C283.993 100.71 284.109 100.494 287.73 98.2693C292.245 95.4943 292.448 95.4303 291.473 97.0833ZM245.728 99.9153C275.296 104.028 300.205 120.811 306.907 141.136C315.841 168.23 315.497 193.469 306.047 204.232C304.422 206.083 303.092 208.058 303.092 208.622C303.092 221.675 259.738 232.004 230.428 225.935C180.022 215.497 118.555 169.365 130.629 151.034C153.265 116.665 204.036 94.1163 245.728 99.9153ZM321.527 100.728C321.832 101.221 321.431 101.873 320.637 102.177C319.674 102.547 319.379 102.249 319.75 101.282C320.395 99.6023 320.761 99.4883 321.527 100.728ZM54.0916 102.211C54.0916 102.418 53.3036 103.206 52.3416 103.961C50.7556 105.204 50.7206 105.169 51.9636 103.583C53.2706 101.917 54.0916 101.388 54.0916 102.211ZM302.072 109.357C301.376 110.195 300.601 110.675 300.349 110.424C299.656 109.73 301.065 107.833 302.273 107.833C302.937 107.833 302.861 108.407 302.072 109.357ZM330.633 113.766C330.271 114.353 329.495 114.833 328.911 114.833C328.247 114.833 328.323 114.259 329.112 113.309C330.484 111.656 331.709 112.025 330.633 113.766ZM312.801 119.838C311.746 121.344 311.174 121.584 310.861 120.653C310.616 119.927 311.13 118.807 312.003 118.165C314.212 116.538 314.577 117.303 312.801 119.838ZM320.759 132.5C320.392 132.866 320.092 132.566 320.092 131.833C320.092 131.1 320.392 130.8 320.759 131.166C321.125 131.533 321.125 132.133 320.759 132.5ZM77.0916 186.274C77.0916 186.517 76.5716 187.036 75.9366 187.428C75.2216 187.871 75.0536 187.703 75.4966 186.988C76.2086 185.835 77.0916 185.44 77.0916 186.274ZM133.092 188.274C133.092 188.517 132.572 189.036 131.937 189.428C131.222 189.871 131.054 189.703 131.497 188.988C132.209 187.835 133.092 187.44 133.092 188.274ZM116.86 193.833C116.173 194.933 115.269 195.833 114.851 195.833C113.589 195.833 114 193.037 115.342 192.495C117.739 191.528 118.1 191.847 116.86 193.833ZM347.009 194.157C344.578 196.05 313.092 213.565 313.092 213.024C313.092 212.101 346.406 192.813 346.99 193.398C347.23 193.637 347.238 193.979 347.009 194.157ZM73.0916 204.274C73.0916 204.517 72.5716 205.036 71.9366 205.428C71.2216 205.871 71.0536 205.703 71.4966 204.988C72.2086 203.835 73.0916 203.44 73.0916 204.274ZM184.092 222.617C184.092 223.049 182.698 224.225 180.994 225.232C177.896 227.062 177.896 227.062 179.609 224.447C181.202 222.016 184.092 220.836 184.092 222.617ZM200.086 228.583C200.082 228.995 198.732 230.1 197.086 231.036C193.75 232.935 193.25 232.421 195.747 229.662C197.4 227.835 200.098 227.165 200.086 228.583ZM161.5 233.333C159.973 235.664 157.092 236.795 157.092 235.065C157.092 234.44 161.875 230.956 162.865 230.86C163.015 230.845 162.401 231.958 161.5 233.333ZM71.0716 233.357C70.3756 234.195 69.5466 234.621 69.2276 234.303C68.9096 233.985 69.3116 233.306 70.1206 232.794C72.2376 231.455 72.5146 231.619 71.0716 233.357ZM221.038 233.715C223.232 234.327 222.632 234.88 215.208 239.087C206.932 243.775 206.932 243.775 209.066 240.554C210.24 238.783 211.698 236.321 212.306 235.083C213.451 232.756 216.109 232.339 221.038 233.715ZM279.009 233.246C273.357 238.841 254.823 246.835 259.218 241.781C262.086 238.484 265.369 235.586 266.513 235.341C277.371 233.023 279.614 232.646 279.009 233.246ZM245.092 236.285C245.092 236.777 233.304 243.833 232.482 243.833C232.205 243.833 233.467 242.041 235.286 239.851C238.172 236.375 245.092 233.858 245.092 236.285ZM174.092 241.833C173.089 243.707 171.092 244.612 171.092 243.193C171.092 242.627 174.14 239.947 174.877 239.865C175.034 239.847 174.681 240.733 174.092 241.833ZM302.481 242.624C300.77 244.114 296.372 247.985 292.707 251.226C286.759 256.487 272.397 262.472 270.433 260.508C270.161 260.236 304.178 240.082 305.092 239.973C305.367 239.941 304.192 241.133 302.481 242.624ZM193.33 247.325C190.661 251.743 188.576 252.441 185.776 249.854C185.185 249.309 193.666 243.426 195.817 242.889C195.941 242.858 194.822 244.854 193.33 247.325ZM209.86 254.833C209.173 255.933 207.707 256.83 206.601 256.826C204.918 256.821 205.079 256.497 207.592 254.833C211.311 252.37 211.398 252.37 209.86 254.833ZM233.036 256.912C230.556 260.395 229.181 261.134 226.061 260.662C224.276 260.392 231.523 254.873 234.91 253.922C235.085 253.873 234.242 255.219 233.036 256.912ZM72.4366 259.376C72.1106 260.225 71.6296 260.705 71.3676 260.443C71.1056 260.181 71.1876 259.486 71.5506 258.9C72.5366 257.304 73.1126 257.614 72.4366 259.376ZM130.54 340.247C128.065 342.057 127.6 341.593 129.248 338.955C130.085 337.615 130.885 337.226 131.513 337.854C132.142 338.483 131.798 339.328 130.54 340.247ZM115.06 342.583C114.985 344.364 112.137 346.979 111.023 346.29C110.177 345.767 110.528 345.002 112.206 343.712C114.923 341.623 115.104 341.551 115.06 342.583ZM144.789 349.424C144.966 349.956 143.721 351.211 142.023 352.215C138.934 354.039 138.934 354.039 140.572 350.872C142.107 347.903 144.059 347.233 144.789 349.424ZM409.897 351.098C410.688 352.051 409.977 352.895 407.02 354.515C402.482 357.001 402.301 356.822 405.28 352.793C407.716 349.498 408.37 349.258 409.897 351.098ZM125.418 356.583C124.471 358.095 123.572 359.51 123.419 359.726C123.266 359.941 122.42 359.521 121.541 358.79C120.154 357.639 123.706 354.36 126.865 353.875C127.015 353.852 126.364 355.071 125.418 356.583ZM155.759 358.5C155.392 358.866 155.092 358.566 155.092 357.833C155.092 357.1 155.392 356.8 155.759 357.166C156.125 357.533 156.125 358.133 155.759 358.5ZM421.531 359.735C421.838 360.231 420.402 361.624 418.341 362.83C414.592 365.023 414.592 365.023 417.529 361.928C420.82 358.461 420.763 358.492 421.531 359.735ZM168.092 365.226C168.092 365.442 167.394 365.887 166.54 366.215C165.65 366.556 165.249 366.388 165.599 365.822C166.186 364.871 168.092 364.416 168.092 365.226ZM181.009 371.198C178.993 372.961 175.712 374.015 176.964 372.497C177.719 371.582 179.032 370.833 179.881 370.833C180.73 370.833 181.238 370.997 181.009 371.198ZM193.092 377.226C193.092 377.442 192.417 377.878 191.592 378.195C190.767 378.511 190.092 378.334 190.092 377.802C190.092 377.269 190.767 376.833 191.592 376.833C192.417 376.833 193.092 377.01 193.092 377.226ZM445.539 378.748C445.85 379.251 444.527 380.601 442.598 381.748C430.182 389.132 429.728 389.176 438.419 382.151C443.966 377.667 444.665 377.333 445.539 378.748ZM209.019 383.224C212.447 384.463 212.447 384.463 205.694 388.239C197.628 392.75 197.362 392.651 201.154 386.56C204.386 381.367 204.154 381.465 209.019 383.224ZM457.078 387.583C457.07 387.996 454.707 389.623 451.828 391.2C445.977 394.404 445.951 394.309 451.48 389.92C455.321 386.869 457.106 386.124 457.078 387.583ZM228.009 389.152C223.849 392.34 220.212 393.58 221.705 391.3C222.725 389.744 224.264 388.833 225.874 388.833C227.277 388.833 228.238 388.977 228.009 389.152ZM246.401 393.819C249.251 393.841 247.619 395.356 240.042 399.725C233.01 403.779 233.01 403.779 236.801 398.281C239.75 394.003 241.036 392.896 242.592 393.294C243.692 393.575 245.406 393.812 246.401 393.819ZM183.469 396.772C182.062 399.154 181.388 399.527 179.912 398.737C177.515 397.454 177.595 397.166 180.842 395.405C184.875 393.217 185.406 393.493 183.469 396.772ZM468.588 394.84C468.245 395.394 466.531 396.54 464.779 397.386C461.592 398.925 461.592 398.925 464.592 396.384C467.633 393.808 469.725 393 468.588 394.84ZM268.092 398.622C268.092 399.056 265.549 400.872 262.44 402.658C256.84 405.874 256.706 405.518 261.469 400.083C263.328 397.961 268.092 396.911 268.092 398.622ZM461.092 399.274C461.092 399.517 460.572 400.036 459.937 400.428C459.222 400.871 459.054 400.703 459.497 399.988C460.209 398.835 461.092 398.44 461.092 399.274ZM291.362 401.673C292.762 402.227 291.829 403.142 286.894 406.052C279.456 410.439 278.809 410.241 283.055 404.879C286.202 400.906 287.832 400.278 291.362 401.673ZM483.355 405.89C481.655 407.411 443.703 428.85 445.092 427.504C456.804 416.153 479.569 400.933 481.758 402.989C483.056 404.209 483.775 405.514 483.355 405.89ZM318.924 403.837C321.932 403.841 322.358 403.51 310.644 410.287C305.697 413.149 305.697 413.149 309.644 408.03C311.879 405.132 314.17 403.111 314.924 403.372C315.656 403.626 317.456 403.835 318.924 403.837ZM217.851 408.321C215.509 411.937 214.529 412.396 212.243 410.947C211.145 410.252 215.987 406.424 219.851 404.933C219.994 404.878 219.094 406.402 217.851 408.321ZM237.918 413.778C236.535 415.529 234.612 416.745 233.175 416.778C231.846 416.808 231.071 416.521 231.452 416.14C232.089 415.503 239.168 411.144 239.918 410.927C240.097 410.875 239.197 412.158 237.918 413.778ZM261.066 417.865C258.559 421.031 257.311 421.859 255.696 421.425C254.539 421.114 252.917 420.845 252.092 420.827C251.267 420.809 253.517 419.071 257.092 416.964C264.87 412.382 265.327 412.486 261.066 417.865ZM382.092 413.2C382.092 415.188 362.827 427.927 360.235 427.653C357.517 427.365 358.443 426.609 369.402 420.17C382.803 412.295 382.092 412.685 382.092 413.2ZM491.084 414.583C491.08 414.996 489.28 416.359 487.084 417.613C482.051 420.487 481.891 419.721 486.824 416.369C490.945 413.569 491.095 413.506 491.084 414.583ZM288.415 419.79C284.764 424.525 284.371 424.75 279.675 424.79C273.888 424.841 273.941 424.761 283.338 419.264C292.663 413.811 293 413.845 288.415 419.79ZM399.542 418.662C393.763 423.706 388.956 426.831 386.989 426.822C385.21 426.813 386.526 425.656 392.092 422.333C399.339 418.007 401.53 416.927 399.542 418.662ZM338.092 427.333C337.407 428.158 336.366 428.833 335.778 428.833C335.191 428.833 335.583 428.172 336.651 427.365C339.159 425.467 339.649 425.457 338.092 427.333ZM416.092 437.274C416.092 437.517 415.572 438.036 414.937 438.428C414.222 438.871 414.054 438.703 414.497 437.988C415.209 436.835 416.092 436.44 416.092 437.274ZM410.592 441.379C400.515 449.688 392.102 455.734 392.162 454.622C392.347 451.241 394.339 449.369 403.116 444.332C413.666 438.277 414.986 437.755 410.592 441.379ZM387.092 473.211C387.092 473.418 386.304 474.206 385.342 474.961C383.756 476.204 383.721 476.169 384.964 474.583C386.271 472.917 387.092 472.388 387.092 473.211ZM402.092 478.274C402.092 478.517 401.572 479.036 400.937 479.428C400.222 479.871 400.054 479.703 400.497 478.988C401.209 477.835 402.092 477.44 402.092 478.274ZM398.542 480.711C394.148 484.774 383.063 491.595 382.455 490.611C382.061 489.973 382.155 489.307 382.665 489.13C383.175 488.954 386.967 486.795 391.092 484.332C398.481 479.922 400.41 478.984 398.542 480.711Z" fill="#AAAAFF"/>
<path fill-rule="evenodd" clip-rule="evenodd" d="M13.1246 3.33826C-10.5464 15.4113 -2.07336 46.4673 44.9076 119.833C75.2686 167.245 72.3716 161.295 69.4986 170.333C41.7586 257.609 66.5466 339.736 133.448 382.205C135.018 383.202 137.673 385.326 139.346 386.925C141.019 388.525 143.2 389.833 144.192 389.833C145.184 389.833 147.525 391.408 149.395 393.333C151.264 395.258 153.791 396.833 155.009 396.833C158.07 396.833 161.092 398.605 161.092 400.4C161.092 401.944 164.983 403.957 166.377 403.135C167.92 402.225 177.713 407.055 178.65 409.187C179.378 410.846 180.5 411.349 183.592 411.404C188.224 411.486 192.092 412.589 192.092 413.829C192.092 416.021 195.433 417.917 198.217 417.305C201.74 416.532 210.56 419.301 213.299 422.04C214.686 423.427 216.004 423.821 217.774 423.377C220.168 422.776 230.486 425.16 232.592 426.801C233.142 427.229 235.842 427.832 238.592 428.14C241.342 428.448 249.564 429.851 256.862 431.258C292.44 438.118 339.523 440.092 376.283 436.265C382.974 435.569 382.974 435.569 378.486 449.272C356.938 515.072 372.379 519.029 442.669 465.72C455.277 456.158 473.017 443.384 482.092 437.334C508.979 419.408 512.266 409.499 495.092 398.147C480.889 388.76 476.022 385.28 453.592 368.469C425.01 347.047 411.686 338.087 399.678 332.209C394.775 329.809 390.015 327.168 389.099 326.339C386.049 323.579 374.501 327.39 371.975 331.991C368.431 338.443 371.482 360.234 379.023 382.325C382.684 393.053 382.623 392.284 379.842 392.542C378.604 392.656 374.892 393.157 371.592 393.654C367.794 394.225 365.138 394.2 364.356 393.584C363.153 392.637 361.687 392.758 351.886 394.612C348.247 395.301 347.063 395.2 346.667 394.168C345.971 392.355 341.04 392.481 338.329 394.38C335.897 396.083 316.594 395.455 315.47 393.636C315.161 393.136 311.93 393.015 308.251 393.367C284.898 395.6 228.948 381.908 195.093 365.676C128.826 333.903 98.0366 280.76 106.417 212.622C107.243 205.91 107.243 205.91 111.996 211.622C132.3 236.018 162.532 254.718 195.527 263.291C200.815 264.665 206.065 266.283 207.195 266.888C208.324 267.492 209.845 267.758 210.573 267.479C212.834 266.611 226.3 268.898 227.807 270.405C229.579 272.177 230.882 272.191 234.171 270.475C237.165 268.912 242.512 269.429 244.182 271.442C245.745 273.325 248.002 273.185 251.616 270.981C253.391 269.899 258.56 268.643 264.124 267.943C269.34 267.287 275.851 266.177 278.593 265.477C282.83 264.397 283.971 264.43 286.187 265.702C289.966 267.871 321.365 249.816 333.816 238.316C364.855 209.646 370.625 168.055 350.395 118.833C329.815 68.7633 249.867 43.6843 181.092 65.7243C177.517 66.8703 173.641 67.8133 172.479 67.8203C164.287 67.8703 125.869 92.1743 110.959 106.738C99.5916 117.842 99.5916 117.842 97.2826 115.087C92.2616 109.097 80.2306 87.4003 70.5656 66.9043C46.3546 15.5643 38.3566 2.83326 30.3126 2.83326C27.9986 2.83326 25.8166 2.20626 25.0916 1.33326C23.2766 -0.853738 20.3976 -0.371738 13.1246 3.33826ZM25.9016 11.9683C26.9656 13.3663 26.6326 13.9063 23.6146 15.6873C20.0826 17.7713 20.0826 17.7713 22.1566 13.7053C23.2976 11.4693 24.3266 9.79526 24.4446 9.98626C24.5616 10.1773 25.2176 11.0693 25.9016 11.9683ZM35.0086 27.1163C34.7796 27.2723 33.6916 28.0593 32.5916 28.8663C30.7416 30.2233 30.6946 30.2023 31.9636 28.5833C32.7186 27.6213 33.8066 26.8333 34.3806 26.8333C34.9546 26.8333 35.2376 26.9603 35.0086 27.1163ZM17.3886 32.2303C15.7266 34.4473 14.0916 34.7923 14.0916 32.9273C14.0916 32.3073 17.3486 30.2523 18.8886 29.9013C19.0516 29.8633 18.3766 30.9123 17.3886 32.2303ZM48.0916 53.3333C48.0916 54.1583 47.9036 54.8333 47.6736 54.8333C47.4436 54.8333 46.4986 55.1233 45.5746 55.4783C44.0856 56.0493 44.0466 55.8773 45.2336 53.9783C46.7926 51.4823 48.0916 51.1883 48.0916 53.3333ZM30.4996 58.3333C28.8546 60.8443 27.0916 61.6493 27.0916 59.8903C27.0916 59.0943 30.9066 55.8333 31.8376 55.8333C32.0026 55.8333 31.4006 56.9583 30.4996 58.3333ZM223.009 64.1163C222.78 64.2723 221.692 65.0593 220.592 65.8663C218.742 67.2233 218.695 67.2023 219.964 65.5833C220.719 64.6203 221.807 63.8333 222.381 63.8333C222.955 63.8333 223.238 63.9603 223.009 64.1163ZM243.092 64.2743C243.092 64.5173 242.572 65.0363 241.937 65.4283C241.222 65.8713 241.054 65.7033 241.497 64.9883C242.209 63.8353 243.092 63.4403 243.092 64.2743ZM268.092 68.9153C268.092 69.3253 265.054 71.3493 261.342 73.4133C257.63 75.4763 253.512 77.8613 252.192 78.7123C250.284 79.9423 250.754 78.8143 254.49 73.1963C258.832 66.6653 268.092 63.7523 268.092 68.9153ZM191.592 70.7033C183.713 75.5273 156.71 90.8433 157.592 89.9883C164.533 83.2593 177.638 74.4813 184.592 71.9043C193.88 68.4623 195.788 68.1343 191.592 70.7033ZM283.092 74.2263C283.092 74.4423 282.394 74.8873 281.54 75.2153C280.65 75.5563 280.249 75.3883 280.599 74.8223C281.186 73.8713 283.092 73.4163 283.092 74.2263ZM59.5266 75.7283C59.8316 76.2213 59.4306 76.8733 58.6366 77.1773C57.6736 77.5473 57.3786 77.2493 57.7496 76.2823C58.3946 74.6023 58.7606 74.4883 59.5266 75.7283ZM235.537 84.2183C231.605 90.1403 231.465 90.2063 220.646 91.1843C217.661 91.4543 216.274 91.2943 217.146 90.7793C241.996 76.1333 240.567 76.6433 235.537 84.2183ZM43.0916 80.2113C43.0916 80.4183 42.3036 81.2063 41.3416 81.9613C39.7556 83.2043 39.7206 83.1693 40.9636 81.5833C42.2706 79.9173 43.0916 79.3883 43.0916 80.2113ZM297.092 81.4143C297.092 81.6163 295.715 82.4943 294.032 83.3643C290.971 84.9473 290.971 84.9473 292.607 82.4503C293.928 80.4343 297.092 79.7033 297.092 81.4143ZM254.092 89.2743C254.092 89.5173 253.572 90.0363 252.937 90.4283C252.222 90.8713 252.054 90.7033 252.497 89.9883C253.209 88.8353 254.092 88.4403 254.092 89.2743ZM273.016 92.5833C271.683 94.0963 270.579 95.4213 270.563 95.5293C270.547 95.6363 269.948 95.3623 269.231 94.9193C268.285 94.3343 268.842 93.5493 271.26 92.0563C275.698 89.3163 275.855 89.3633 273.016 92.5833ZM309.58 90.4673C310.953 90.9943 310.756 91.4153 308.412 92.9603C304.567 95.4953 303.737 95.3043 305.684 92.3333C307.526 89.5223 307.344 89.6093 309.58 90.4673ZM291.473 97.0833C288.282 102.496 287.909 102.806 285.878 101.718C283.993 100.71 284.109 100.494 287.73 98.2693C292.245 95.4943 292.448 95.4303 291.473 97.0833ZM245.728 99.9153C275.296 104.028 300.205 120.811 306.907 141.136C315.841 168.23 315.497 193.469 306.047 204.232C304.422 206.083 303.092 208.058 303.092 208.622C303.092 221.675 259.738 232.004 230.428 225.935C180.022 215.497 118.555 169.365 130.629 151.034C153.265 116.665 204.036 94.1163 245.728 99.9153ZM321.527 100.728C321.832 101.221 321.431 101.873 320.637 102.177C319.674 102.547 319.379 102.249 319.75 101.282C320.395 99.6023 320.761 99.4883 321.527 100.728ZM54.0916 102.211C54.0916 102.418 53.3036 103.206 52.3416 103.961C50.7556 105.204 50.7206 105.169 51.9636 103.583C53.2706 101.917 54.0916 101.388 54.0916 102.211ZM302.072 109.357C301.376 110.195 300.601 110.675 300.349 110.424C299.656 109.73 301.065 107.833 302.273 107.833C302.937 107.833 302.861 108.407 302.072 109.357ZM330.633 113.766C330.271 114.353 329.495 114.833 328.911 114.833C328.247 114.833 328.323 114.259 329.112 113.309C330.484 111.656 331.709 112.025 330.633 113.766ZM313.461 119.393C312.255 121.234 311.567 121.601 311.01 120.7C310.551 119.958 310.92 118.928 311.914 118.172C314.613 116.121 315.267 116.637 313.461 119.393ZM322.092 131.274C322.092 131.517 321.642 131.993 321.092 132.333C320.542 132.673 320.092 132.474 320.092 131.892C320.092 131.31 320.542 130.833 321.092 130.833C321.642 130.833 322.092 131.031 322.092 131.274ZM77.0916 186.274C77.0916 186.517 76.5716 187.036 75.9366 187.428C75.2216 187.871 75.0536 187.703 75.4966 186.988C76.2086 185.835 77.0916 185.44 77.0916 186.274ZM133.092 188.274C133.092 188.517 132.572 189.036 131.937 189.428C131.222 189.871 131.054 189.703 131.497 188.988C132.209 187.835 133.092 187.44 133.092 188.274ZM116.86 193.833C116.173 194.933 115.269 195.833 114.851 195.833C113.589 195.833 114 193.037 115.342 192.495C117.739 191.528 118.1 191.847 116.86 193.833ZM347.009 194.183C346.78 194.376 340.067 198.269 332.092 202.833C324.117 207.398 316.58 211.792 315.342 212.598C314.104 213.404 313.092 213.666 313.092 213.181C313.092 212.154 346.342 192.75 346.99 193.398C347.23 193.637 347.238 193.991 347.009 194.183ZM73.0916 204.274C73.0916 204.517 72.5716 205.036 71.9366 205.428C71.2216 205.871 71.0536 205.703 71.4966 204.988C72.2086 203.835 73.0916 203.44 73.0916 204.274ZM184.092 222.617C184.092 223.049 182.698 224.225 180.994 225.232C177.896 227.062 177.896 227.062 179.609 224.447C181.202 222.016 184.092 220.836 184.092 222.617ZM200.086 228.583C200.082 228.995 198.732 230.1 197.086 231.036C193.75 232.935 193.25 232.421 195.747 229.662C197.4 227.835 200.098 227.165 200.086 228.583ZM161.844 233.083C160.358 235.325 157.092 236.738 157.092 235.138C157.092 234.42 161.871 230.938 162.964 230.86C163.169 230.845 162.665 231.845 161.844 233.083ZM71.0716 233.357C70.3756 234.195 69.5466 234.621 69.2276 234.303C68.9096 233.985 69.3116 233.306 70.1206 232.794C72.2376 231.455 72.5146 231.619 71.0716 233.357ZM221.038 233.715C223.233 234.328 222.637 234.878 215.233 239.072C206.982 243.747 206.982 243.747 209.229 240.04C210.465 238.001 211.948 235.546 212.525 234.583C213.597 232.794 216.629 232.485 221.038 233.715ZM279.009 233.246C273.326 238.871 254.701 246.902 259.092 241.833C261.958 238.525 265.268 235.611 266.447 235.358C277.125 233.065 279.613 232.647 279.009 233.246ZM245.092 236.285C245.092 236.774 233.307 243.833 232.491 243.833C232.22 243.833 233.444 242.033 235.212 239.833C238.027 236.33 245.092 233.793 245.092 236.285ZM174.092 241.833C173.089 243.707 171.092 244.612 171.092 243.193C171.092 242.627 174.14 239.947 174.877 239.865C175.034 239.847 174.681 240.733 174.092 241.833ZM302.481 242.624C300.77 244.114 296.372 247.985 292.707 251.226C286.759 256.487 272.397 262.472 270.433 260.508C270.161 260.236 304.178 240.082 305.092 239.973C305.367 239.941 304.192 241.133 302.481 242.624ZM193.33 247.325C190.661 251.743 188.576 252.441 185.776 249.854C185.185 249.309 193.666 243.426 195.817 242.889C195.941 242.858 194.822 244.854 193.33 247.325ZM209.86 254.833C209.173 255.933 207.707 256.83 206.601 256.826C204.918 256.821 205.079 256.497 207.592 254.833C211.311 252.37 211.398 252.37 209.86 254.833ZM233.036 256.912C230.556 260.395 229.181 261.134 226.061 260.662C224.276 260.392 231.523 254.873 234.91 253.922C235.085 253.873 234.242 255.219 233.036 256.912ZM72.2746 260.05C71.5576 260.767 71.0916 260.826 71.0916 260.2C71.0916 258.865 72.2746 257.682 72.9416 258.35C73.2256 258.634 72.9256 259.399 72.2746 260.05ZM130.54 340.247C128.065 342.057 127.6 341.593 129.248 338.955C130.085 337.615 130.885 337.226 131.513 337.854C132.142 338.483 131.798 339.328 130.54 340.247ZM115.06 342.583C114.975 344.595 112.035 347.176 111.004 346.145C110.23 345.371 110.578 344.606 112.23 343.449C114.847 341.616 115.105 341.537 115.06 342.583ZM144.789 349.424C144.966 349.956 143.721 351.211 142.023 352.215C138.934 354.039 138.934 354.039 140.572 350.872C142.107 347.903 144.059 347.233 144.789 349.424ZM409.9 351.101C410.692 352.056 409.982 352.927 407.022 354.631C402.515 357.225 402.227 356.921 405.28 352.793C407.717 349.497 408.37 349.258 409.9 351.101ZM125.418 356.583C124.471 358.095 123.572 359.51 123.419 359.726C123.266 359.941 122.42 359.521 121.541 358.79C120.154 357.639 123.706 354.36 126.865 353.875C127.015 353.852 126.364 355.071 125.418 356.583ZM155.216 359.1C154.228 360.08 154.114 359.965 154.656 358.54C155.032 357.554 155.591 356.999 155.899 357.307C156.207 357.614 155.9 358.421 155.216 359.1ZM421.531 359.735C421.838 360.231 420.402 361.624 418.341 362.83C414.592 365.023 414.592 365.023 417.529 361.928C420.82 358.461 420.763 358.492 421.531 359.735ZM168.092 365.226C168.092 365.442 167.394 365.887 166.54 366.215C165.65 366.556 165.249 366.388 165.599 365.822C166.186 364.871 168.092 364.416 168.092 365.226ZM181.009 371.198C178.993 372.961 175.712 374.015 176.964 372.497C177.719 371.582 179.032 370.833 179.881 370.833C180.73 370.833 181.238 370.997 181.009 371.198ZM193.092 377.226C193.092 377.442 192.417 377.878 191.592 378.195C190.767 378.511 190.092 378.334 190.092 377.802C190.092 377.269 190.767 376.833 191.592 376.833C192.417 376.833 193.092 377.01 193.092 377.226ZM445.539 378.748C445.85 379.251 444.527 380.601 442.598 381.748C430.351 389.032 429.803 389.06 438.592 381.949C443.912 377.646 444.648 377.306 445.539 378.748ZM209.061 383.238C212.53 384.49 212.53 384.49 205.759 388.277C197.676 392.797 197.348 392.675 201.154 386.56C204.389 381.362 204.147 381.463 209.061 383.238ZM457.078 387.583C457.07 387.996 454.707 389.623 451.828 391.2C445.977 394.404 445.951 394.309 451.48 389.92C455.321 386.869 457.106 386.124 457.078 387.583ZM228.009 389.152C223.849 392.34 220.212 393.58 221.705 391.3C222.725 389.744 224.264 388.833 225.874 388.833C227.277 388.833 228.238 388.977 228.009 389.152ZM246.401 393.819C249.251 393.841 247.619 395.356 240.042 399.725C233.01 403.779 233.01 403.779 236.801 398.281C239.75 394.003 241.036 392.896 242.592 393.294C243.692 393.575 245.406 393.812 246.401 393.819ZM183.469 396.772C182.062 399.154 181.388 399.527 179.912 398.737C177.515 397.454 177.595 397.166 180.842 395.405C184.875 393.217 185.406 393.493 183.469 396.772ZM469.092 394.648C469.092 395.096 467.405 396.229 465.342 397.166C461.592 398.869 461.592 398.869 464.592 396.356C467.686 393.764 469.092 393.231 469.092 394.648ZM268.092 398.622C268.092 399.056 265.549 400.872 262.44 402.658C256.84 405.874 256.706 405.518 261.469 400.083C263.328 397.961 268.092 396.911 268.092 398.622ZM461.092 399.274C461.092 399.517 460.572 400.036 459.937 400.428C459.222 400.871 459.054 400.703 459.497 399.988C460.209 398.835 461.092 398.44 461.092 399.274ZM291.362 401.673C292.762 402.227 291.829 403.142 286.894 406.052C279.456 410.439 278.809 410.241 283.055 404.879C286.202 400.906 287.832 400.278 291.362 401.673ZM483.355 405.89C482.935 406.265 473.817 411.583 463.092 417.707C442.62 429.397 442.788 428.956 465.423 411.57C477.5 402.294 492.779 397.454 483.355 405.89ZM318.924 403.837C321.935 403.841 322.226 403.612 310.592 410.391C305.592 413.304 305.592 413.304 309.592 408.108C311.862 405.159 314.168 403.111 314.924 403.372C315.656 403.626 317.456 403.835 318.924 403.837ZM217.851 408.321C215.509 411.937 214.529 412.396 212.243 410.947C211.145 410.252 215.987 406.424 219.851 404.933C219.994 404.878 219.094 406.402 217.851 408.321ZM237.918 413.778C236.535 415.529 234.612 416.745 233.175 416.778C231.846 416.808 231.071 416.521 231.452 416.14C232.089 415.503 239.168 411.144 239.918 410.927C240.097 410.875 239.197 412.158 237.918 413.778ZM261.066 417.865C258.559 421.031 257.311 421.859 255.696 421.425C254.539 421.114 252.917 420.845 252.092 420.827C251.267 420.809 253.517 419.071 257.092 416.964C264.87 412.382 265.327 412.486 261.066 417.865ZM381.542 413.74C374.353 420.602 363.373 427.83 360.179 427.803C357.581 427.781 357.006 427.521 358.092 426.86C363.347 423.666 381.671 413.007 382.042 412.928C382.289 412.876 382.064 413.241 381.542 413.74ZM491.092 414.674C491.092 415.137 488.729 416.775 485.842 418.314C480.065 421.394 480.392 420.572 486.574 416.473C491.021 413.525 491.092 413.497 491.092 414.674ZM288.415 419.79C284.764 424.525 284.371 424.75 279.675 424.79C273.888 424.841 273.941 424.761 283.338 419.264C292.663 413.811 293 413.845 288.415 419.79ZM400.092 418.211C400.092 419.518 388.972 426.831 387 426.822C385.205 426.813 386.501 425.671 392.092 422.333C399.839 417.708 400.092 417.578 400.092 418.211ZM338.092 427.333C337.407 428.158 336.366 428.833 335.778 428.833C335.191 428.833 335.583 428.172 336.651 427.365C339.159 425.467 339.649 425.457 338.092 427.333ZM416.092 437.274C416.092 437.517 415.572 438.036 414.937 438.428C414.222 438.871 414.054 438.703 414.497 437.988C415.209 436.835 416.092 436.44 416.092 437.274ZM410.592 441.397C400.823 449.513 392.102 455.783 392.162 454.647C392.344 451.246 394.316 449.386 403.115 444.311C413.608 438.26 415.041 437.701 410.592 441.397ZM387.092 473.211C387.092 473.418 386.304 474.206 385.342 474.961C383.756 476.204 383.721 476.169 384.964 474.583C386.271 472.917 387.092 472.388 387.092 473.211ZM402.092 478.274C402.092 478.517 401.572 479.036 400.937 479.428C400.222 479.871 400.054 479.703 400.497 478.988C401.209 477.835 402.092 477.44 402.092 478.274ZM396.634 482.115C385.935 490.139 383.187 491.796 382.479 490.651C382.072 489.991 382.155 489.307 382.665 489.13C383.175 488.954 386.967 486.795 391.092 484.332C399.281 479.444 401.24 478.661 396.634 482.115Z" fill="#9999CC"/>
<path fill-rule="evenodd" clip-rule="evenodd" d="M13.4667 3.30745C-10.7183 14.8215 -2.25635 46.1815 44.9076 119.833C75.2687 167.245 72.3716 161.295 69.4986 170.333C41.7586 257.609 66.5466 339.736 133.448 382.205C135.018 383.202 137.673 385.326 139.346 386.925C141.019 388.525 143.2 389.833 144.192 389.833C145.184 389.833 147.525 391.408 149.395 393.333C151.264 395.258 153.791 396.833 155.009 396.833C158.07 396.833 161.092 398.605 161.092 400.4C161.092 401.944 164.983 403.957 166.377 403.135C167.92 402.225 177.713 407.055 178.65 409.187C179.378 410.846 180.5 411.349 183.592 411.404C188.224 411.486 192.092 412.589 192.092 413.829C192.092 416.021 195.433 417.917 198.217 417.305C201.728 416.534 210.556 419.297 213.277 422.018C214.666 423.407 216.004 423.792 217.955 423.363C219.586 423.005 223.29 423.622 227.14 424.895C230.689 426.067 235.617 427.373 238.092 427.797C240.567 428.221 248.791 429.75 256.368 431.193C292.804 438.136 339.388 440.106 376.283 436.265C382.974 435.569 382.974 435.569 378.486 449.272C356.938 515.072 372.379 519.029 442.669 465.72C455.277 456.158 473.017 443.384 482.092 437.334C508.979 419.408 512.266 409.499 495.092 398.147C480.889 388.76 476.022 385.28 453.592 368.469C425.01 347.047 411.686 338.087 399.678 332.209C394.775 329.809 390.015 327.168 389.099 326.339C385.85 323.399 374.77 327.297 372.092 332.322C368.476 339.107 371.351 359.85 379.023 382.325C382.684 393.053 382.623 392.284 379.842 392.542C378.604 392.656 374.892 393.157 371.592 393.653C367.854 394.216 364.889 394.195 363.727 393.598C362.701 393.071 360.676 392.888 359.227 393.192C348.968 395.34 347.17 395.48 346.667 394.168C345.974 392.361 341.043 392.479 338.347 394.367C335.908 396.075 315.092 395.412 315.092 393.625C315.092 393.101 312.219 392.987 308.342 393.358C284.897 395.6 229.018 381.942 195.093 365.676C128.826 333.903 98.0366 280.76 106.417 212.622C107.243 205.91 107.243 205.91 111.996 211.622C132.3 236.018 162.532 254.718 195.527 263.291C200.815 264.665 206.065 266.283 207.195 266.888C208.324 267.492 209.845 267.758 210.573 267.479C212.318 266.809 226.434 268.78 227.086 269.784C228.143 271.413 231.692 271.755 234.171 270.468C237.168 268.912 242.514 269.432 244.182 271.442C245.745 273.325 248.002 273.185 251.616 270.981C253.391 269.899 258.56 268.643 264.124 267.943C269.34 267.287 275.851 266.177 278.593 265.477C282.83 264.397 283.971 264.43 286.187 265.702C289.966 267.871 321.365 249.816 333.816 238.316C364.855 209.646 370.625 168.055 350.395 118.833C329.815 68.7635 249.867 43.6845 181.092 65.7245C177.517 66.8705 173.455 67.8135 172.065 67.8205C170.674 67.8275 168.626 68.4715 167.512 69.2515C166.398 70.0325 160.561 73.1615 154.539 76.2065C136.595 85.2805 123.635 94.3565 111.001 106.697C99.5916 117.842 99.5917 117.842 97.2827 115.087C92.2617 109.097 80.2307 87.4005 70.5657 66.9045C46.3547 15.5645 38.3567 2.83345 30.3127 2.83345C27.9987 2.83345 25.8167 2.20645 25.0917 1.33345C23.3067 -0.817546 21.4817 -0.508546 13.4667 3.30745ZM25.9016 11.9685C26.9656 13.3665 26.6327 13.9065 23.6147 15.6875C20.0827 17.7715 20.0827 17.7715 22.1567 13.7055C23.2977 11.4695 24.3267 9.79545 24.4447 9.98645C24.5617 10.1775 25.2176 11.0695 25.9016 11.9685ZM34.5606 26.7835C34.8836 27.3055 34.2146 28.2325 33.0736 28.8425C31.1536 29.8705 31.0956 29.8005 32.2866 27.8935C33.7656 25.5245 33.7786 25.5175 34.5606 26.7835ZM17.3887 32.2305C15.7267 34.4475 14.0917 34.7925 14.0917 32.9275C14.0917 32.3075 17.3487 30.2525 18.8887 29.9015C19.0517 29.8635 18.3767 30.9125 17.3887 32.2305ZM48.0916 53.3335C48.0916 54.1585 47.9036 54.8335 47.6736 54.8335C47.4436 54.8335 46.4986 55.1235 45.5746 55.4785C44.0856 56.0495 44.0466 55.8775 45.2336 53.9785C46.7926 51.4825 48.0916 51.1885 48.0916 53.3335ZM30.4997 58.3335C28.8547 60.8445 27.0917 61.6495 27.0917 59.8905C27.0917 59.0945 30.9066 55.8335 31.8376 55.8335C32.0026 55.8335 31.4007 56.9585 30.4997 58.3335ZM223.092 64.2985C223.092 64.5535 222.08 65.3025 220.842 65.9625C218.802 67.0495 218.72 67.0055 219.964 65.4975C221.242 63.9485 223.092 63.2395 223.092 64.2985ZM243.092 64.2745C243.092 64.5175 242.572 65.0365 241.937 65.4285C241.222 65.8715 241.054 65.7035 241.497 64.9885C242.209 63.8355 243.092 63.4405 243.092 64.2745ZM268.067 68.4435C269.006 68.7615 267.571 70.0215 264.122 71.9085C261.141 73.5385 256.738 76.0235 254.338 77.4295C249.974 79.9865 249.974 79.9865 254.612 73.0125C259.616 65.4865 259.485 65.5315 268.067 68.4435ZM191.592 70.7035C180.194 77.6825 157.142 90.3645 159.592 88.3095C170.546 79.1205 177.608 74.4995 184.754 71.8435C193.868 68.4565 195.784 68.1375 191.592 70.7035ZM283.092 74.2265C283.092 74.4425 282.394 74.8875 281.54 75.2155C280.65 75.5565 280.249 75.3885 280.599 74.8225C281.186 73.8715 283.092 73.4165 283.092 74.2265ZM58.9776 76.9045C57.3726 77.8955 56.6426 77.3695 57.5606 75.8835C57.9286 75.2885 58.6966 75.0895 59.2676 75.4425C59.9396 75.8575 59.8366 76.3725 58.9776 76.9045ZM235.577 84.2905C231.558 90.1265 231.367 90.2145 220.646 91.1845C217.661 91.4545 216.274 91.2945 217.146 90.7795C241.926 76.1745 240.924 76.5275 235.577 84.2905ZM43.0916 80.2115C43.0916 80.4185 42.3036 81.2065 41.3416 81.9615C39.7556 83.2045 39.7206 83.1695 40.9636 81.5835C42.2706 79.9175 43.0916 79.3885 43.0916 80.2115ZM297.092 81.4145C297.092 81.6165 295.715 82.4945 294.032 83.3645C290.971 84.9475 290.971 84.9475 292.607 82.4505C293.928 80.4345 297.092 79.7035 297.092 81.4145ZM254.092 89.2745C254.092 89.5175 253.572 90.0365 252.937 90.4285C252.222 90.8715 252.054 90.7035 252.497 89.9885C253.209 88.8355 254.092 88.4405 254.092 89.2745ZM273.016 92.5835C271.683 94.0965 270.579 95.4215 270.563 95.5295C270.547 95.6365 269.948 95.3625 269.231 94.9195C268.285 94.3345 268.842 93.5495 271.26 92.0565C275.698 89.3165 275.855 89.3635 273.016 92.5835ZM309.58 90.4675C310.953 90.9945 310.756 91.4155 308.412 92.9605C304.567 95.4955 303.737 95.3045 305.684 92.3335C307.526 89.5225 307.344 89.6095 309.58 90.4675ZM291.473 97.0835C288.282 102.496 287.909 102.806 285.878 101.718C283.993 100.71 284.109 100.494 287.73 98.2695C292.245 95.4945 292.448 95.4305 291.473 97.0835ZM70.0917 98.2745C70.0917 98.5175 69.5717 99.0365 68.9367 99.4285C68.2217 99.8715 68.0537 99.7035 68.4967 98.9885C69.2087 97.8355 70.0917 97.4405 70.0917 98.2745ZM245.728 99.9155C275.296 104.028 300.205 120.811 306.907 141.136C315.841 168.23 315.497 193.469 306.047 204.232C304.422 206.083 303.092 208.058 303.092 208.622C303.092 221.675 259.738 232.004 230.428 225.935C180.022 215.497 118.555 169.365 130.629 151.034C153.265 116.665 204.036 94.1165 245.728 99.9155ZM321.527 100.728C321.832 101.221 321.431 101.873 320.637 102.177C319.674 102.547 319.379 102.249 319.75 101.282C320.395 99.6025 320.761 99.4885 321.527 100.728ZM53.0716 103.357C52.3756 104.195 51.5466 104.621 51.2276 104.303C50.9096 103.985 51.3116 103.306 52.1206 102.794C54.2376 101.455 54.5146 101.619 53.0716 103.357ZM302.586 108.839C301.588 109.943 300.506 110.581 300.183 110.257C299.86 109.934 300.468 109.031 301.535 108.251C304.275 106.248 304.711 106.492 302.586 108.839ZM331.092 112.798C331.092 113.328 330.171 114.255 329.046 114.857C327.157 115.869 327.099 115.795 328.287 113.893C329.638 111.729 331.092 111.161 331.092 112.798ZM313.461 119.393C312.198 121.32 311.58 121.629 310.957 120.643C310.436 119.818 310.749 118.87 311.802 118.083C314.514 116.056 315.261 116.645 313.461 119.393ZM322.092 131.274C322.092 131.517 321.642 131.993 321.092 132.333C320.542 132.673 320.092 132.474 320.092 131.892C320.092 131.31 320.542 130.833 321.092 130.833C321.642 130.833 322.092 131.031 322.092 131.274ZM77.0917 186.274C77.0917 186.517 76.5717 187.036 75.9367 187.428C75.2217 187.871 75.0537 187.703 75.4967 186.988C76.2087 185.835 77.0917 185.44 77.0917 186.274ZM133.092 188.274C133.092 188.517 132.572 189.036 131.937 189.428C131.222 189.871 131.054 189.703 131.497 188.988C132.209 187.835 133.092 187.44 133.092 188.274ZM116.86 193.833C116.173 194.933 115.269 195.833 114.851 195.833C113.589 195.833 114 193.037 115.342 192.495C117.739 191.528 118.1 191.847 116.86 193.833ZM347.091 193.583C347.09 193.995 344.728 195.634 341.841 197.225C337.25 199.755 326.631 205.933 316.342 212.061C314.554 213.125 313.092 213.59 313.092 213.093C313.092 212.597 316.804 210.068 321.342 207.474C325.88 204.879 333.417 200.537 338.092 197.824C347.547 192.337 347.092 192.551 347.091 193.583ZM73.0917 204.274C73.0917 204.517 72.5717 205.036 71.9367 205.428C71.2217 205.871 71.0537 205.703 71.4967 204.988C72.2087 203.835 73.0917 203.44 73.0917 204.274ZM184.092 222.617C184.092 223.049 182.698 224.225 180.994 225.232C177.896 227.062 177.896 227.062 179.609 224.447C181.202 222.016 184.092 220.836 184.092 222.617ZM200.092 228.617C200.092 229.049 198.742 230.199 197.092 231.174C193.778 233.132 193.197 232.479 195.747 229.662C197.419 227.814 200.092 227.171 200.092 228.617ZM162.092 232.833C160.156 235.552 157.073 236.943 157.105 235.083C157.116 234.465 162.835 230.105 163.91 229.895C164.085 229.861 163.267 231.183 162.092 232.833ZM71.5857 232.839C70.5877 233.943 69.5387 234.613 69.2537 234.329C68.9697 234.045 69.6047 233.156 70.6646 232.354C73.3686 230.309 73.7127 230.49 71.5857 232.839ZM221.092 233.735C223.389 234.38 223.023 234.752 216.592 238.3C212.742 240.424 208.937 242.65 208.136 243.247C207.335 243.844 207.759 242.533 209.078 240.333C210.397 238.133 211.948 235.546 212.525 234.583C213.602 232.785 216.641 232.484 221.092 233.735ZM278.849 233.41C273.242 239.017 254.73 246.869 259.152 241.764C261.985 238.494 265.268 235.611 266.447 235.358C277.801 232.92 279.624 232.634 278.849 233.41ZM245.092 236.285C245.092 236.774 233.307 243.833 232.491 243.833C232.22 243.833 233.444 242.033 235.212 239.833C238.027 236.33 245.092 233.793 245.092 236.285ZM174.092 241.833C173.089 243.707 171.092 244.612 171.092 243.193C171.092 242.627 174.14 239.947 174.877 239.865C175.034 239.847 174.681 240.733 174.092 241.833ZM301.592 243.454C293.755 250.458 290.484 253.359 288.329 255.214C286.483 256.804 271.239 261.313 270.433 260.508C270.168 260.243 304.132 240.103 305.092 239.956C305.367 239.914 303.792 241.488 301.592 243.454ZM193.33 247.325C190.659 251.747 188.575 252.441 185.768 249.846C185.164 249.288 194.182 243.015 195.817 242.855C195.941 242.843 194.822 244.854 193.33 247.325ZM209.86 254.833C209.173 255.933 207.707 256.83 206.601 256.826C204.918 256.821 205.079 256.497 207.592 254.833C211.311 252.37 211.398 252.37 209.86 254.833ZM232.368 257.856C230.173 260.205 228.731 260.915 226.656 260.666C224.028 260.351 224.164 260.169 229.236 257.241C235.636 253.546 236.278 253.672 232.368 257.856ZM72.2747 260.05C71.5577 260.767 71.0917 260.826 71.0917 260.2C71.0917 258.865 72.2747 257.682 72.9417 258.35C73.2257 258.634 72.9257 259.399 72.2747 260.05ZM130.54 340.247C129.47 341.03 128.445 341.52 128.263 341.337C128.08 341.154 128.458 340.017 129.104 338.811C129.96 337.212 130.576 336.917 131.381 337.722C132.186 338.527 131.958 339.21 130.54 340.247ZM114.389 344.302C112.447 346.969 111.534 347.358 110.634 345.901C110.318 345.389 111.066 344.264 112.298 343.401C115.571 341.109 116.44 341.483 114.389 344.302ZM145.092 349.74C145.092 350.104 143.735 351.203 142.077 352.183C139.062 353.964 139.062 353.964 140.752 350.421C142.267 347.242 145.092 346.799 145.092 349.74ZM409.869 351.01C410.771 351.912 410.177 352.721 407.319 354.479C402.142 357.662 401.557 357.396 404.799 353.333C407.896 349.452 408.181 349.322 409.869 351.01ZM125.418 356.583C124.471 358.095 123.572 359.51 123.419 359.726C123.266 359.941 122.42 359.521 121.541 358.79C120.154 357.639 123.706 354.36 126.865 353.875C127.015 353.852 126.364 355.071 125.418 356.583ZM155.216 359.1C154.228 360.08 154.114 359.965 154.656 358.54C155.032 357.554 155.591 356.999 155.899 357.307C156.207 357.614 155.9 358.421 155.216 359.1ZM421.531 359.735C421.838 360.231 420.402 361.624 418.341 362.83C414.592 365.023 414.592 365.023 417.529 361.928C420.82 358.461 420.763 358.492 421.531 359.735ZM168.092 365.226C168.092 365.442 167.394 365.887 166.54 366.215C165.65 366.556 165.249 366.388 165.599 365.822C166.186 364.871 168.092 364.416 168.092 365.226ZM181.009 371.198C178.993 372.961 175.712 374.015 176.964 372.497C177.719 371.582 179.032 370.833 179.881 370.833C180.73 370.833 181.238 370.997 181.009 371.198ZM193.092 377.226C193.092 377.442 192.417 377.878 191.592 378.195C190.767 378.511 190.092 378.334 190.092 377.802C190.092 377.269 190.767 376.833 191.592 376.833C192.417 376.833 193.092 377.01 193.092 377.226ZM445.538 378.746C445.848 379.248 442.613 381.749 438.347 384.304C430.225 389.17 430.278 388.658 438.592 381.943C443.912 377.646 444.649 377.307 445.538 378.746ZM209.061 383.238C212.53 384.49 212.53 384.49 205.759 388.277C197.676 392.797 197.348 392.675 201.154 386.56C204.389 381.362 204.147 381.463 209.061 383.238ZM457.091 387.583C457.09 387.996 454.728 389.639 451.841 391.236C445.96 394.488 445.918 394.335 451.48 389.92C455.326 386.865 457.093 386.13 457.091 387.583ZM228.009 389.159C225.267 391.307 219.916 393.907 220.571 392.774C222.401 389.608 223.444 388.833 225.881 388.833C227.28 388.833 228.238 388.98 228.009 389.159ZM183.984 396.083C182.75 397.871 181.674 399.441 181.593 399.573C181.512 399.704 180.605 399.197 179.576 398.445C177.937 397.246 182.343 393.373 185.91 392.877C186.085 392.853 185.218 394.295 183.984 396.083ZM246.556 393.819C249.394 393.839 247.149 395.825 239.306 400.233C233.019 403.766 233.019 403.766 236.806 398.274C239.751 394.002 241.036 392.896 242.592 393.294C243.692 393.575 245.476 393.812 246.556 393.819ZM469.092 394.648C469.092 395.096 467.405 396.229 465.342 397.166C461.592 398.869 461.592 398.869 464.592 396.356C467.686 393.764 469.092 393.231 469.092 394.648ZM268.092 398.622C268.092 399.056 265.549 400.872 262.44 402.658C256.84 405.874 256.706 405.518 261.469 400.083C263.328 397.961 268.092 396.911 268.092 398.622ZM461.092 399.274C461.092 399.517 460.572 400.036 459.937 400.428C459.222 400.871 459.054 400.703 459.497 399.988C460.209 398.835 461.092 398.44 461.092 399.274ZM291.369 401.676C292.803 402.243 292.128 402.991 287.869 405.557C279.147 410.811 278.161 410.806 282.487 405.527C286.255 400.928 287.791 400.262 291.369 401.676ZM483.355 405.918C482.345 406.859 444.092 428.747 444.092 428.384C444.092 427.966 468.119 409.183 476.438 403.097C479.457 400.889 485.923 403.525 483.355 405.918ZM318.896 403.833C322.041 403.833 321.478 404.299 311.603 409.873C305.615 413.253 305.615 413.253 309.603 408.082C311.864 405.151 314.169 403.111 314.924 403.372C315.656 403.626 317.444 403.833 318.896 403.833ZM217.851 408.321C215.515 411.927 214.527 412.395 212.268 410.963C211.215 410.295 217.533 405.221 219.851 404.872C219.994 404.851 219.094 406.402 217.851 408.321ZM237.918 413.778C236.535 415.529 234.612 416.745 233.175 416.778C231.846 416.808 231.071 416.521 231.452 416.14C232.089 415.503 239.168 411.144 239.918 410.927C240.097 410.875 239.197 412.158 237.918 413.778ZM261.066 417.865C258.559 421.031 257.311 421.859 255.696 421.425C254.539 421.114 252.917 420.845 252.092 420.827C251.267 420.809 253.517 419.071 257.092 416.964C264.87 412.382 265.327 412.486 261.066 417.865ZM379.592 415.366C365.646 426.643 363.793 427.833 360.215 427.806C356.592 427.78 356.592 427.78 359.092 426.284C381.655 412.78 384.98 411.009 379.592 415.366ZM491.092 414.674C491.092 415.137 488.729 416.775 485.842 418.314C480.065 421.394 480.392 420.572 486.574 416.473C491.021 413.525 491.092 413.497 491.092 414.674ZM288.415 419.79C284.764 424.525 284.371 424.75 279.675 424.79C273.888 424.841 273.941 424.761 283.338 419.264C292.663 413.811 293 413.845 288.415 419.79ZM400.682 417.688C399.206 420.076 389.094 426.833 387 426.83C385.212 426.827 386.652 425.561 392.592 421.911C401.448 416.47 401.428 416.48 400.682 417.688ZM338.092 427.333C337.407 428.158 336.34 428.819 335.72 428.801C335.099 428.784 335.466 428.109 336.533 427.301C339.027 425.415 339.673 425.428 338.092 427.333ZM416.092 437.274C416.092 437.517 415.572 438.036 414.937 438.428C414.222 438.871 414.054 438.703 414.497 437.988C415.209 436.835 416.092 436.44 416.092 437.274ZM410.592 441.397C400.823 449.513 392.102 455.783 392.162 454.647C392.348 451.176 394.398 449.233 403.139 444.244C413.639 438.251 415.01 437.727 410.592 441.397ZM387.092 473.211C387.092 473.418 386.304 474.206 385.342 474.961C383.756 476.204 383.721 476.169 384.964 474.583C386.271 472.917 387.092 472.388 387.092 473.211ZM402.092 478.274C402.092 478.517 401.572 479.036 400.937 479.428C400.222 479.871 400.054 479.703 400.497 478.988C401.209 477.835 402.092 477.44 402.092 478.274ZM396.634 482.115C385.935 490.139 383.187 491.796 382.479 490.651C382.072 489.991 382.155 489.307 382.665 489.13C383.175 488.954 386.967 486.795 391.092 484.332C399.281 479.444 401.24 478.661 396.634 482.115Z" fill="#A7DCB8"/>
<path fill-rule="evenodd" clip-rule="evenodd" d="M13.367 3.80459C-11.707 9.76159 -1.47403 47.4016 44.908 119.834C75.269 167.246 72.372 161.296 69.499 170.334C41.284 259.103 64.686 335.202 134.954 383.184C138.055 385.301 140.468 387.472 140.317 388.008C140.166 388.544 140.507 388.696 141.074 388.345C141.641 387.994 143.34 388.567 144.849 389.618C146.358 390.668 152.992 394.447 159.592 398.015C218.403 429.808 299.983 444.209 376.283 436.266C382.974 435.57 382.974 435.57 378.486 449.273C356.973 514.966 372.493 518.943 442.669 465.721C455.277 456.159 473.017 443.385 482.092 437.335C508.979 419.409 512.266 409.5 495.092 398.148C480.889 388.761 476.022 385.281 453.592 368.47C374.81 309.425 355.388 313.035 379.025 382.326C380.712 387.272 382.092 391.62 382.092 391.988C382.092 393.189 376.615 393.735 348.092 395.382C213.361 403.162 105.76 332.804 105.618 236.834C105.574 207.501 106.272 204.745 111.996 211.623C155.436 263.817 237.698 283.906 301.842 257.985C304.729 256.818 307.099 256.194 307.107 256.599C307.116 257.003 307.453 256.832 307.857 256.218C308.261 255.605 310.617 254.083 313.092 252.837C360.181 229.124 374.533 177.564 350.395 118.834C318.91 42.2306 177.548 37.2796 107.134 110.314C99.676 118.05 99.676 118.05 97.325 115.192C92.153 108.903 80.198 87.3306 70.566 66.9046C40.202 2.51559 36.408 -1.66941 13.367 3.80459ZM27.021 13.5956C32.853 22.5706 41.78 39.3596 55.472 67.1076C69.82 96.1856 76.15 107.601 86.119 122.374C90.974 129.568 91.007 129.673 89.221 131.991C88.228 133.279 85.491 137.597 83.14 141.584C80.788 145.572 78.739 148.834 78.587 148.834C77.01 148.834 50.684 104.967 45.155 93.1276C43.561 89.7136 38.23 79.8136 33.308 71.1276C14.951 38.7266 9.75297 25.2676 12.189 16.4436C14.196 9.17559 23.044 7.47659 27.021 13.5956ZM260.092 66.3416C285.043 72.4036 300.735 81.1796 320.803 100.295C329.362 108.448 338.073 122.836 336.667 126.499C336.363 127.29 336.515 127.691 337.003 127.389C339.306 125.965 346.648 152.352 348.317 168.053C359.411 272.411 204.523 297.967 122.365 205.334C111.064 192.592 110.577 191.512 113.055 184.714C119.288 167.622 119.143 167.719 125.274 176.45C177.656 251.039 310.475 257.195 325.714 185.74C349.415 74.6126 156.84 55.2246 110.396 164.062C63.395 274.202 109.634 357.91 235.868 391.211C242.619 392.992 247.808 394.785 247.398 395.195C246.988 395.604 247.401 395.653 248.315 395.302C249.229 394.951 253.491 395.392 257.785 396.281C291.759 403.317 345.82 405.767 381.092 401.869C399.878 399.793 400.561 396.157 388.482 362.565C375.898 327.572 380.703 327.884 428.445 365.16C451.917 383.487 457.334 387.398 468.091 393.785C495.766 410.218 497.766 418.126 477.107 429.434C468.175 434.323 466.927 435.223 439.092 456.853C380.718 502.214 373.871 502.752 389.586 460.742C399.775 433.505 398.64 426.347 384.271 427.21C228.763 436.554 125.46 395.02 87.034 307.703C66.844 261.822 63.609 222.754 76.72 183.154C103.101 103.479 188.649 48.9826 260.092 66.3416ZM245.728 99.9156C289.454 105.998 313.184 132.81 313.362 176.334C313.547 221.313 270.539 239.995 210.928 220.83C168.567 207.211 120.911 165.789 130.629 151.035C153.265 116.666 204.036 94.1166 245.728 99.9156ZM232.592 255.834C232.932 256.384 233.435 256.834 233.71 256.834C233.985 256.834 233.932 256.384 233.592 255.834C233.252 255.284 232.749 254.834 232.474 254.834C232.199 254.834 232.252 255.284 232.592 255.834Z" fill="#856EB7"/>
<path fill-rule="evenodd" clip-rule="evenodd" d="M14.092 3.76359C-11.922 8.96459 -1.88897 46.7556 44.908 119.834C75.269 167.246 72.372 161.296 69.499 170.334C43.05 253.548 62.367 327.529 122.592 373.666C126.992 377.037 132.328 381.154 134.45 382.814C136.572 384.475 138.85 385.834 139.512 385.834C140.173 385.834 141.739 386.788 142.991 387.955C145.461 390.255 152.938 394.647 160.092 397.999C162.567 399.158 165.856 400.995 167.401 402.081C168.946 403.166 173.446 405.311 177.401 406.847C181.356 408.384 185.942 410.356 187.592 411.231C189.242 412.106 191.141 412.824 191.812 412.828C192.484 412.831 195.483 413.955 198.478 415.325C201.473 416.695 206.324 418.454 209.258 419.234C212.192 420.014 218.192 421.773 222.592 423.143C264.409 436.163 326.415 441.457 376.283 436.266C382.974 435.57 382.974 435.57 378.486 449.273C356.984 514.93 372.532 518.914 442.669 465.721C455.277 456.159 473.017 443.385 482.092 437.335C508.979 419.409 512.266 409.5 495.092 398.148C480.889 388.761 476.022 385.281 453.592 368.47C374.996 309.565 356.126 312.77 378.697 381.191C382.944 394.066 383.407 393.395 369.592 394.389C217.067 405.372 105.769 338.943 105.618 236.834C105.574 207.501 106.272 204.745 111.996 211.623C134.057 238.129 170.124 259.021 204.931 265.456C221.914 268.596 224.791 268.871 241.092 268.919C262.463 268.982 274.404 267.167 291.341 261.283C298.629 258.751 305.346 256.618 306.269 256.543C307.191 256.467 307.759 256.104 307.531 255.736C307.304 255.367 308.569 254.465 310.343 253.73C358.469 233.796 374.9 178.455 350.395 118.834C323.973 54.5496 209.714 37.4806 136.092 86.8186C122.163 96.1536 119.616 98.1956 109.592 108.061C99.592 117.903 99.592 117.903 97.283 115.118C92.199 108.987 80.195 87.3236 70.566 66.9046C40.166 2.43858 37.215 -0.860413 14.092 3.76359ZM27.809 14.5856C32.519 21.5366 34.321 24.9306 53.417 62.8336C72.404 100.521 73.343 102.231 83.592 117.74C87.442 123.567 90.735 128.651 90.91 129.038C91.085 129.426 89.461 132.351 87.301 135.538C85.141 138.726 82.374 143.3 81.151 145.704C78.632 150.658 77.424 149.236 60.881 121.834C52.466 107.896 52.928 108.729 44.483 92.2526C41.124 85.6976 36.061 76.3606 33.233 71.5046C30.406 66.6486 28.08 62.3736 28.066 62.0046C28.052 61.6356 26.477 58.8796 24.566 55.8796C22.655 52.8806 21.092 49.6176 21.092 48.6296C21.092 47.6416 20.725 46.8336 20.276 46.8336C17.894 46.8336 10.774 24.4116 11.395 18.8666C12.509 8.91959 22.249 6.37959 27.809 14.5856ZM255.092 64.7116C257.017 65.2416 262.866 66.8576 268.089 68.3016C273.312 69.7456 278.584 71.5806 279.804 72.3806C281.024 73.1796 282.609 73.8336 283.327 73.8336C285.299 73.8336 304.125 85.2756 307.904 88.7706C309.725 90.4556 311.54 91.8336 311.936 91.8336C317.207 91.8336 338.173 120.594 336.781 125.915C336.515 126.933 336.737 127.669 337.274 127.55C343.596 126.153 351.101 176.358 347.407 195.334C337.741 244.989 278.569 273.557 215.092 259.216C211.517 258.408 206.728 257.339 204.449 256.841C175.571 250.523 130.934 221.004 116.357 198.584C114.837 196.247 112.926 193.814 112.111 193.177C110.254 191.73 111.529 186.346 116.21 175.877C119.866 167.702 120.033 167.62 122.858 172.584C133.6 191.455 164.514 215.135 190.592 224.467C193.342 225.451 196.717 226.834 198.092 227.539C199.467 228.245 201.305 228.824 202.177 228.828C203.049 228.831 206.587 229.762 210.04 230.895C221.271 234.582 238.755 236.142 263.092 235.629C319.42 234.441 348.432 163.419 310.188 120.334C308.312 118.219 298.975 109.834 298.497 109.834C298.221 109.834 295.22 107.991 291.829 105.738C245.665 75.0756 164.235 93.0556 123.829 142.834C107.7 162.705 94.087 204.128 92.662 237.677C92.351 245.015 91.843 251.428 91.535 251.927C91.226 252.426 91.359 252.834 91.831 252.834C92.302 252.834 93.215 257.013 93.86 262.121C97.289 289.267 117.818 328.494 134.49 339.754C135.646 340.535 138.901 343.235 141.722 345.754C147.778 351.16 155.129 356.527 160.311 359.326C162.357 360.43 164.851 362.009 165.854 362.834C170.843 366.937 206.499 383.02 214.661 384.85C217.323 385.446 220.871 386.519 222.546 387.235C224.221 387.95 228.742 389.347 232.592 390.339C246.209 393.846 248.144 394.449 247.586 395.006C247.276 395.316 248.159 395.353 249.549 395.087C250.938 394.821 256.241 395.519 261.333 396.636C300.658 405.266 387.636 406.055 394.287 397.842C398.134 393.09 395.583 380.015 386.578 358.334C380.036 342.584 380.152 334.844 386.902 336.779C391.187 338.008 401.255 343.833 406.357 348.034C408.136 349.499 411.685 352.191 414.244 354.016C421.803 359.408 433.081 368.062 440.817 374.408C453.514 384.823 459.059 388.612 471.432 395.331C474.094 396.776 478.195 399.731 480.544 401.897C482.893 404.062 485.291 405.834 485.872 405.834C487.706 405.834 491.092 412.427 491.092 415.999C491.092 420.27 486.146 425.356 478.092 429.365C470.452 433.168 466.369 436.047 444.092 453.339C382.792 500.922 374.672 503.207 386.098 469.66C387.818 464.609 389.86 459.25 390.635 457.751C398.454 442.631 396.869 426.77 387.592 427.3C352.468 429.308 301.342 428.581 286.592 425.864C283.842 425.357 278.442 424.691 274.592 424.383C261.656 423.349 233.351 417.693 219.092 413.292C214.967 412.019 209.582 410.451 207.125 409.809C204.667 409.166 200.842 407.82 198.625 406.818C196.407 405.815 193.467 404.689 192.092 404.316C171.374 398.683 112.092 357.282 112.092 348.446C112.092 347.831 110.812 346.12 109.249 344.644C101.493 337.324 86.068 308.873 80.616 291.834C79.12 287.159 77.259 281.759 76.479 279.834C42.53 196.009 113.827 80.4416 209.092 64.8786C213.217 64.2046 217.267 63.5376 218.092 63.3966C221.754 62.7706 251.939 63.8426 255.092 64.7116ZM245.728 99.9156C289.454 105.998 313.184 132.81 313.362 176.334C313.417 189.635 307.374 209.362 303.902 207.217C303.259 206.819 303.06 206.974 303.436 207.581C304.419 209.172 294.249 217.953 287.738 221.136C244.156 242.44 164.553 213.108 131.418 163.535C114.521 138.256 195.87 92.9816 245.728 99.9156ZM232.592 255.834C232.932 256.384 233.435 256.834 233.71 256.834C233.985 256.834 233.932 256.384 233.592 255.834C233.252 255.284 232.749 254.834 232.474 254.834C232.199 254.834 232.252 255.284 232.592 255.834Z" fill="#574B71"/>
<path fill-rule="evenodd" clip-rule="evenodd" d="M21.9828 3.27527C21.7398 3.51927 19.3018 3.81428 16.5658 3.93328C11.5198 4.15128 6.09185 6.14528 6.09185 7.78228C6.09185 8.27628 4.85485 10.1523 3.34185 11.9513C-7.05515 24.3203 6.80885 60.2913 44.9198 119.833C75.2668 167.243 72.3718 161.295 69.4988 170.333C48.5088 236.372 55.4989 294.438 89.9649 340.333C100.252 354.031 123.067 376.347 129.092 378.605C129.917 378.914 132.281 380.666 134.345 382.5C136.409 384.333 138.756 385.833 139.56 385.833C140.364 385.833 142.604 387.221 144.537 388.918C146.469 390.615 148.714 392.101 149.526 392.22C150.337 392.339 153.221 393.876 155.936 395.635C158.65 397.394 161.294 398.833 161.81 398.833C162.327 398.833 164.797 400.19 167.301 401.848C169.804 403.506 174.719 405.798 178.222 406.941C181.726 408.084 185.267 409.599 186.092 410.308C186.917 411.016 188.717 411.89 190.092 412.25C196.511 413.927 200.092 415.211 200.092 415.835C200.092 416.21 202.905 417.295 206.342 418.246C216.91 421.172 218.452 421.64 222.794 423.241C225.106 424.093 229.381 425.231 232.294 425.77C235.208 426.309 240.948 427.672 245.051 428.799C249.153 429.927 254.328 431.053 256.551 431.303C258.773 431.552 262.842 432.236 265.592 432.822C289.651 437.951 343.878 439.639 376.266 436.267C382.94 435.572 382.94 435.572 378.453 449.453C370.762 473.241 368.411 488.877 371.437 496.115C373.859 501.91 375.287 502.46 385.337 501.478C393.235 500.707 408.898 491.244 435.092 471.418C460.98 451.825 473.013 443.123 486.092 434.538C508.631 419.744 511.319 408.872 495.092 398.147C480.806 388.705 476.006 385.274 453.592 368.479C414.155 338.929 398.064 329.164 387.243 328.216C384.135 327.943 381.001 327.524 380.279 327.284C378.802 326.793 372.619 329.693 373.424 330.499C373.709 330.783 373.036 333.113 371.928 335.675C368.725 343.08 370.839 357.193 378.8 381.561C383.125 394.799 383.695 393.615 372.834 393.955C368.026 394.106 364.092 394.566 364.092 394.979C364.092 396.253 310.349 395.06 298.124 393.514C291.817 392.716 286.049 392.296 285.307 392.581C284.564 392.866 282.975 392.625 281.775 392.046C280.574 391.467 275.317 390.26 270.092 389.364C156.868 369.941 95.2518 303.405 106.417 212.622C107.243 205.91 107.243 205.91 111.996 211.622C130.288 233.6 168.446 258.255 188.969 261.357C190.412 261.575 193.467 262.431 195.759 263.26C198.051 264.088 202.458 265 205.551 265.287C208.644 265.573 212.003 266.25 213.015 266.792C214.572 267.625 230.23 268.956 240.592 269.136C254.575 269.378 280.59 266.2 283.592 263.882C284.142 263.458 287.742 262.167 291.592 261.013C300.111 258.461 315.877 250.89 322.344 246.246C324.958 244.369 327.529 242.833 328.058 242.833C330.301 242.833 342.608 229.871 347.956 221.876C366.504 194.145 366.811 154.887 348.794 114.795C340.862 97.1473 311.627 74.2253 285.806 65.4103C276.305 62.1663 259.331 58.5273 257.314 59.3013C256.502 59.6133 255.235 59.3673 254.497 58.7543C253.219 57.6933 224.933 57.9663 211.503 59.1683C202.335 59.9903 178.083 65.8183 175.592 67.7993C173.569 69.4083 159.764 74.7483 158.942 74.2403C158.474 73.9513 158.092 74.2673 158.092 74.9413C158.092 75.6153 157.812 75.8873 157.47 75.5453C156.072 74.1463 134.436 86.9453 127.687 93.1623C125.539 95.1403 123.422 96.5373 122.983 96.2663C122.544 95.9943 117.101 100.738 110.888 106.807C99.5918 117.842 99.5919 117.842 97.2829 115.087C92.1109 108.917 80.2029 87.2933 69.4879 64.6133C52.2159 28.0563 39.9938 6.45627 35.0948 3.83527C33.2578 2.85127 22.8508 2.40727 21.9828 3.27527ZM26.5918 12.5473C30.2828 17.1173 34.0918 23.6003 34.0918 25.3133C34.0918 26.0143 34.7858 27.1643 35.6338 27.8683C37.4518 29.3773 46.4798 47.1063 47.4558 51.0833C47.8268 52.5963 48.4768 53.8333 48.9008 53.8333C49.3248 53.8333 51.8518 58.4453 54.5168 64.0833C57.1818 69.7213 59.7488 75.0083 60.2218 75.8333C63.9738 82.3853 70.0919 95.0803 70.0919 96.3133C70.0919 97.1493 70.5339 97.8333 71.0749 97.8333C71.6159 97.8333 73.1428 99.9703 74.4688 102.583C75.7948 105.195 80.1388 112.275 84.1208 118.314C91.1038 128.902 91.3088 129.386 89.8598 131.814C77.1408 153.132 78.8078 153.958 56.6398 115.333C53.4838 109.833 50.4898 104.658 49.9868 103.833C47.9268 100.455 40.0918 83.9813 40.0918 83.0273C40.0918 82.4623 39.6998 81.8503 39.2208 81.6663C38.1198 81.2443 28.0918 63.6183 28.0918 62.1033C28.0918 61.4833 27.4688 60.3533 26.7078 59.5923C24.8148 57.6983 21.0918 50.2623 21.0918 48.3733C21.0918 47.5263 20.7318 46.8333 20.2908 46.8333C19.3398 46.8333 15.0918 38.3583 15.0918 36.4603C15.0918 35.7343 14.3328 33.6193 13.4048 31.7593C6.33185 17.5813 17.5068 1.30028 26.5918 12.5473ZM247.592 63.4203C250.892 63.5963 257.093 64.8863 261.373 66.2863C265.652 67.6873 270.152 68.8473 271.373 68.8643C272.593 68.8813 275.842 70.0023 278.592 71.3553C281.342 72.7083 284.109 73.8193 284.742 73.8243C285.374 73.8293 288.233 75.4093 291.096 77.3363C293.959 79.2623 297.862 81.5793 299.769 82.4843C301.677 83.3903 305.042 85.8633 307.247 87.9823C309.451 90.1003 311.711 91.8333 312.268 91.8333C314.041 91.8333 330.092 108.178 330.092 109.983C330.092 110.936 330.551 111.998 331.111 112.345C333.094 113.57 337.267 123.137 336.826 125.446C336.581 126.725 336.777 127.528 337.26 127.229C339.133 126.071 345.298 144.772 348.068 160.017C349.618 168.548 349.616 189.497 348.064 191.367C347.435 192.125 347.2 193.199 347.543 193.753C349.31 196.612 341.397 216.692 335.296 224.833C324.134 239.726 300.444 255.599 286.767 257.35C284.854 257.595 278.359 258.952 272.334 260.365C257.951 263.737 237.252 263.485 214.842 259.663C211.129 259.03 208.092 258.134 208.092 257.673C208.092 257.211 206.812 256.833 205.249 256.833C202.281 256.833 191.622 253.492 189.701 251.959C189.091 251.472 186.082 250.355 183.014 249.476C179.946 248.597 175.764 246.742 173.72 245.355C171.676 243.968 169.541 242.833 168.976 242.833C167.412 242.833 159.092 237.759 159.092 236.805C159.092 236.345 158.08 235.657 156.842 235.277C150.01 233.181 115.092 201.499 115.092 197.397C115.092 196.581 113.959 194.864 112.575 193.58C109.749 190.96 110.232 188.628 116.612 174.083C119.826 166.756 120.028 166.672 122.605 171.583C123.687 173.646 124.802 175.558 125.082 175.833C127.341 178.049 133.092 185.889 133.092 186.751C133.092 187.346 133.554 187.833 134.118 187.833C134.683 187.833 137.799 190.36 141.043 193.449C154.094 205.875 176.314 219.612 191.092 224.39C194.117 225.368 196.828 226.518 197.117 226.946C197.406 227.373 201.23 228.464 205.614 229.369C209.999 230.275 213.837 231.421 214.143 231.915C214.448 232.41 219.4 233.278 225.145 233.844C230.891 234.41 236.876 235.135 238.445 235.455C241.668 236.113 247.502 236.087 260.592 235.359C298.659 233.241 323.853 210.504 325.995 176.333C327.034 159.755 322.685 135.542 317.703 130.169C316.438 128.805 314.32 125.933 312.997 123.788C311.674 121.642 310.087 119.875 309.469 119.86C308.852 119.845 306.407 117.728 304.036 115.156C301.665 112.584 297.67 109.395 295.158 108.069C292.647 106.744 289.692 104.829 288.592 103.815C287.492 102.8 284.342 101.211 281.592 100.283C278.842 99.3553 274.792 97.8073 272.592 96.8443C270.392 95.8803 265.442 94.5483 261.592 93.8853C257.742 93.2213 253.917 92.4043 253.092 92.0703C251.252 91.3253 247.962 91.1353 232.592 90.8843C193.716 90.2513 144.839 114.8 121.03 146.917C106.786 166.131 94.5659 205.706 93.4189 236.333C93.1089 244.601 92.4229 250.923 91.7429 251.775C90.9359 252.787 90.9269 253.016 91.7139 252.545C92.4789 252.087 93.1929 254.664 93.9619 260.659C97.3549 287.118 111.263 316.379 127.999 332.27C129.7 333.885 131.092 335.809 131.092 336.545C131.092 337.281 132.104 338.279 133.342 338.763C134.58 339.248 137.842 341.826 140.592 344.494C143.342 347.162 146.788 349.958 148.251 350.709C149.713 351.459 152.242 353.29 153.87 354.778C155.499 356.265 158.228 358.061 159.935 358.768C161.641 359.475 164.134 361.07 165.475 362.312C166.816 363.555 168.998 364.844 170.325 365.177C171.652 365.51 174.413 366.919 176.46 368.308C178.506 369.697 180.599 370.833 181.11 370.833C182.719 370.833 191.092 375.194 191.092 376.032C191.092 376.473 192.027 376.833 193.17 376.833C194.313 376.833 198.523 378.408 202.525 380.333C206.527 382.258 210.687 383.833 211.769 383.833C214.093 383.833 223.371 386.849 224.092 387.839C224.367 388.216 226.677 388.804 229.226 389.144C231.775 389.485 235.825 390.496 238.226 391.393C240.627 392.289 243.825 393.256 245.332 393.54C246.839 393.824 247.797 394.501 247.461 395.045C247.06 395.694 247.491 395.696 248.721 395.049C250.584 394.07 260.239 395.465 262.724 397.073C263.347 397.476 266.947 398.009 270.724 398.258C274.501 398.507 280.967 399.37 285.092 400.177C289.217 400.984 296.461 401.698 301.189 401.764C305.917 401.83 311.094 402.26 312.692 402.718C315.512 403.527 371.007 402.41 382.092 401.321C395.804 399.974 398.227 396.259 394.502 382.293C393.628 379.015 392.808 375.883 392.679 375.333C392.551 374.783 391.678 372.559 390.74 370.391C389.802 368.223 388.774 365.298 388.456 363.891C388.139 362.484 387.042 359.533 386.02 357.333C377.527 339.049 383.167 329.276 395.673 340.608C396.728 341.565 398.805 342.886 400.288 343.544C401.771 344.203 404.696 346.237 406.788 348.064C408.88 349.892 411.853 352.026 413.394 352.807C414.935 353.588 417.635 355.708 419.394 357.519C421.153 359.33 422.967 360.816 423.425 360.822C424.58 360.837 443.412 375.756 444.374 377.418C444.804 378.161 446.671 379.489 448.524 380.368C450.376 381.247 453.174 383.273 454.742 384.872C456.309 386.47 458.052 387.79 458.615 387.805C459.177 387.821 461.877 389.295 464.615 391.083C467.352 392.871 470.847 394.894 472.381 395.579C473.915 396.265 477.332 398.848 479.974 401.319C482.616 403.791 484.997 405.595 485.265 405.327C486.3 404.292 490.301 409.827 491.11 413.413C492.586 419.958 488.801 424.528 477.092 430.339C469.977 433.869 465.996 436.723 439.895 457.009C408.536 481.381 391.067 492.833 385.25 492.833C381.033 492.833 380.181 483.61 383.748 476.583C384.515 475.07 384.934 473.833 384.677 473.833C383.918 473.833 388.76 460.27 390.438 457.699C393.366 453.21 395.999 436.854 394.703 431.202C393.85 427.483 389.046 426.186 381.862 427.738C371.798 429.91 290.222 428.34 284.592 425.866C283.492 425.382 278.457 424.758 273.403 424.479C268.349 424.199 261.599 423.306 258.403 422.493C255.207 421.68 248.992 420.48 244.592 419.825C240.192 419.171 236.131 418.259 235.567 417.798C235.003 417.338 232.384 416.702 229.747 416.385C227.11 416.069 222.396 414.889 219.272 413.764C216.148 412.639 211.792 411.326 209.592 410.846C204.588 409.754 188.338 403.573 182.204 400.429C179.667 399.128 174.892 396.847 171.592 395.359C164.833 392.312 147.662 381.955 144.546 379.046C143.421 377.995 141.987 376.955 141.358 376.734C137.958 375.54 112.092 350.763 112.092 348.7C112.092 348.136 110.179 345.747 107.842 343.39C100.693 336.183 82.1148 302.55 82.0968 296.783C82.0938 295.93 81.6649 294.805 81.1439 294.283C80.6219 293.76 79.5089 290.858 78.6699 287.833C77.8309 284.808 76.1838 279.633 75.0098 276.333C69.4528 260.716 66.4828 229.541 69.0568 213.833C69.6418 210.258 70.2949 205.983 70.5069 204.333C70.7189 202.683 71.6328 198.633 72.5368 195.333C73.4418 192.033 74.8399 186.935 75.6449 184.005C86.1839 145.609 122.668 102.423 163.092 80.4913C176.682 73.1183 212.381 62.2833 220.092 63.1913C222.017 63.4173 224.717 63.2243 226.092 62.7603C227.467 62.2973 231.517 62.1843 235.092 62.5093C238.667 62.8343 244.292 63.2443 247.592 63.4203ZM245.762 99.9183C273.071 103.709 299.466 120.426 305.929 138.022C324.555 188.738 308.607 222.763 263.87 227.751C234.736 231 194.352 218.692 165.423 197.747C160.93 194.494 156.693 191.833 156.007 191.833C155.32 191.833 155.037 191.554 155.378 191.214C155.718 190.874 154.266 189.15 152.152 187.383C134.774 172.864 125.984 158.084 130.579 151.109C143.541 131.43 170.306 112.377 196.152 104.43C206.687 101.191 230.422 97.6273 235.762 98.4833C236.955 98.6743 241.455 99.3203 245.762 99.9183ZM232.592 255.833C232.932 256.383 233.435 256.833 233.71 256.833C233.985 256.833 233.932 256.383 233.592 255.833C233.252 255.283 232.749 254.833 232.474 254.833C232.199 254.833 232.252 255.283 232.592 255.833Z" fill="white"/>
<path fill-rule="evenodd" clip-rule="evenodd" d="M21.9828 3.27527C21.7398 3.51927 19.3018 3.81428 16.5658 3.93328C11.5198 4.15128 6.09185 6.14528 6.09185 7.78228C6.09185 8.27628 4.85485 10.1523 3.34185 11.9513C-7.05515 24.3203 6.80885 60.2913 44.9198 119.833C75.2668 167.243 72.3718 161.295 69.4988 170.333C48.5088 236.372 55.4989 294.438 89.9649 340.333C100.252 354.031 123.067 376.347 129.092 378.605C129.917 378.914 132.281 380.666 134.345 382.5C136.409 384.333 138.756 385.833 139.56 385.833C140.364 385.833 142.604 387.221 144.537 388.918C146.469 390.615 148.714 392.101 149.526 392.22C150.337 392.339 153.221 393.876 155.936 395.635C158.65 397.394 161.294 398.833 161.81 398.833C162.327 398.833 164.797 400.19 167.301 401.848C169.804 403.506 174.719 405.798 178.222 406.941C181.726 408.084 185.267 409.599 186.092 410.308C186.917 411.016 188.717 411.89 190.092 412.25C196.511 413.927 200.092 415.211 200.092 415.835C200.092 416.21 202.905 417.295 206.342 418.246C216.91 421.172 218.452 421.64 222.794 423.241C225.106 424.093 229.381 425.231 232.294 425.77C235.208 426.309 240.948 427.672 245.051 428.799C249.153 429.927 254.328 431.053 256.551 431.303C258.773 431.552 262.842 432.236 265.592 432.822C289.651 437.951 343.878 439.639 376.266 436.267C382.94 435.572 382.94 435.572 378.453 449.453C370.762 473.241 368.411 488.877 371.437 496.115C373.859 501.91 375.287 502.46 385.337 501.478C393.235 500.707 408.898 491.244 435.092 471.418C460.98 451.825 473.013 443.123 486.092 434.538C508.631 419.744 511.319 408.872 495.092 398.147C480.806 388.705 476.006 385.274 453.592 368.479C414.155 338.929 398.064 329.164 387.243 328.216C384.135 327.943 381.001 327.524 380.279 327.284C378.802 326.793 372.619 329.693 373.424 330.499C373.709 330.783 373.036 333.113 371.928 335.675C368.763 342.992 371.303 359.691 379.025 382.325C380.712 387.271 382.092 391.837 382.092 392.473C382.092 395.325 319.175 396.147 298.629 393.563C292.05 392.736 286.057 392.293 285.312 392.579C284.567 392.865 282.975 392.625 281.775 392.046C280.574 391.467 275.317 390.26 270.092 389.364C156.868 369.941 95.2518 303.405 106.417 212.622C107.243 205.91 107.243 205.91 111.996 211.622C130.288 233.6 168.446 258.255 188.969 261.357C190.412 261.575 193.467 262.431 195.759 263.26C198.051 264.088 202.458 265 205.551 265.287C208.644 265.573 212.003 266.25 213.015 266.792C214.572 267.625 230.23 268.956 240.592 269.136C254.575 269.378 280.59 266.2 283.592 263.882C284.142 263.458 287.742 262.167 291.592 261.013C300.111 258.461 315.877 250.89 322.344 246.246C324.958 244.369 327.529 242.833 328.058 242.833C330.301 242.833 342.608 229.871 347.956 221.876C366.504 194.145 366.811 154.887 348.794 114.795C340.862 97.1473 311.627 74.2253 285.806 65.4103C276.305 62.1663 259.331 58.5273 257.314 59.3013C256.502 59.6133 255.235 59.3673 254.497 58.7543C253.219 57.6933 224.933 57.9663 211.503 59.1683C202.335 59.9903 178.083 65.8183 175.592 67.7993C173.569 69.4083 159.764 74.7483 158.942 74.2403C158.474 73.9513 158.092 74.2673 158.092 74.9413C158.092 75.6153 157.812 75.8873 157.47 75.5453C156.072 74.1463 134.436 86.9453 127.687 93.1623C125.539 95.1403 123.422 96.5373 122.983 96.2663C122.544 95.9943 117.101 100.738 110.888 106.807C99.5918 117.842 99.5919 117.842 97.2829 115.087C92.1109 108.917 80.2029 87.2933 69.4879 64.6133C52.2159 28.0563 39.9938 6.45627 35.0948 3.83527C33.2578 2.85127 22.8508 2.40727 21.9828 3.27527ZM26.5918 12.5473C30.2828 17.1173 34.0918 23.6003 34.0918 25.3133C34.0918 26.0143 34.7858 27.1643 35.6338 27.8683C37.4518 29.3773 46.4798 47.1063 47.4558 51.0833C47.8268 52.5963 48.4768 53.8333 48.9008 53.8333C49.3248 53.8333 51.8518 58.4453 54.5168 64.0833C57.1818 69.7213 59.7488 75.0083 60.2218 75.8333C63.9738 82.3853 70.0919 95.0803 70.0919 96.3133C70.0919 97.1493 70.5339 97.8333 71.0749 97.8333C71.6159 97.8333 73.1428 99.9703 74.4688 102.583C75.7948 105.195 80.1388 112.275 84.1208 118.314C91.1038 128.902 91.3088 129.386 89.8598 131.814C77.1408 153.132 78.8078 153.958 56.6398 115.333C53.4838 109.833 50.4898 104.658 49.9868 103.833C47.9268 100.455 40.0918 83.9813 40.0918 83.0273C40.0918 82.4623 39.6998 81.8503 39.2208 81.6663C38.1198 81.2443 28.0918 63.6183 28.0918 62.1033C28.0918 61.4833 27.4688 60.3533 26.7078 59.5923C24.8148 57.6983 21.0918 50.2623 21.0918 48.3733C21.0918 47.5263 20.7318 46.8333 20.2908 46.8333C19.3398 46.8333 15.0918 38.3583 15.0918 36.4603C15.0918 35.7343 14.3328 33.6193 13.4048 31.7593C6.33185 17.5813 17.5068 1.30028 26.5918 12.5473ZM247.592 63.4203C250.892 63.5963 257.093 64.8863 261.373 66.2863C265.652 67.6873 270.152 68.8473 271.373 68.8643C272.593 68.8813 275.842 70.0023 278.592 71.3553C281.342 72.7083 284.109 73.8193 284.742 73.8243C285.374 73.8293 288.233 75.4093 291.096 77.3363C293.959 79.2623 297.862 81.5793 299.769 82.4843C301.677 83.3903 305.042 85.8633 307.247 87.9823C309.451 90.1003 311.711 91.8333 312.268 91.8333C314.041 91.8333 330.092 108.178 330.092 109.983C330.092 110.936 330.551 111.998 331.111 112.345C332.472 113.186 337.092 122.377 337.092 124.243C337.092 125.054 337.963 127.207 339.028 129.026C346.148 141.187 352.381 183.819 348.186 191.658C347.623 192.71 347.397 193.804 347.683 194.091C349.578 195.986 341.045 217.162 335.296 224.833C324.134 239.726 300.444 255.599 286.767 257.35C284.854 257.595 278.359 258.952 272.334 260.365C257.951 263.737 237.252 263.485 214.842 259.663C211.129 259.03 208.092 258.134 208.092 257.673C208.092 257.211 206.812 256.833 205.249 256.833C202.281 256.833 191.622 253.492 189.701 251.959C189.091 251.472 186.082 250.355 183.014 249.476C179.946 248.597 175.764 246.742 173.72 245.355C171.676 243.968 169.541 242.833 168.976 242.833C167.412 242.833 159.092 237.759 159.092 236.805C159.092 236.345 158.08 235.657 156.842 235.277C150.01 233.181 115.092 201.499 115.092 197.397C115.092 196.581 113.959 194.864 112.575 193.58C109.749 190.96 110.232 188.628 116.612 174.083C119.826 166.756 120.028 166.672 122.605 171.583C123.687 173.646 124.802 175.558 125.082 175.833C127.341 178.049 133.092 185.889 133.092 186.751C133.092 187.346 133.554 187.833 134.118 187.833C134.683 187.833 137.799 190.36 141.043 193.449C154.094 205.875 176.314 219.612 191.092 224.39C194.117 225.368 196.828 226.518 197.117 226.946C197.406 227.373 201.23 228.464 205.614 229.369C209.999 230.275 213.837 231.421 214.143 231.915C214.448 232.41 219.4 233.278 225.145 233.844C230.891 234.41 236.876 235.135 238.445 235.455C241.668 236.113 247.502 236.087 260.592 235.359C298.659 233.241 323.853 210.504 325.995 176.333C327.034 159.755 322.685 135.542 317.703 130.169C316.438 128.805 314.32 125.933 312.997 123.788C311.674 121.642 310.087 119.875 309.469 119.86C308.852 119.845 306.407 117.728 304.036 115.156C301.665 112.584 297.67 109.395 295.158 108.069C292.647 106.744 289.692 104.829 288.592 103.815C287.492 102.8 284.342 101.211 281.592 100.283C278.842 99.3553 274.792 97.8073 272.592 96.8443C270.392 95.8803 265.442 94.5483 261.592 93.8853C257.742 93.2213 253.917 92.4043 253.092 92.0703C246.964 89.5893 221.321 90.5143 208.092 93.6933C142.29 109.509 108.776 145.545 95.4278 214.833C87.1238 257.936 100.498 306.157 127.999 332.27C129.7 333.885 131.092 335.809 131.092 336.545C131.092 337.281 132.104 338.279 133.342 338.763C134.58 339.248 137.842 341.826 140.592 344.494C143.342 347.162 146.788 349.958 148.251 350.709C149.713 351.459 152.242 353.29 153.87 354.778C155.499 356.265 158.228 358.061 159.935 358.768C161.641 359.475 164.134 361.07 165.475 362.312C166.816 363.555 168.998 364.844 170.325 365.177C171.652 365.51 174.413 366.919 176.46 368.308C178.506 369.697 180.599 370.833 181.11 370.833C182.719 370.833 191.092 375.194 191.092 376.032C191.092 376.473 192.027 376.833 193.17 376.833C194.313 376.833 198.523 378.408 202.525 380.333C206.527 382.258 210.615 383.833 211.609 383.833C214.371 383.833 224.092 387.09 224.092 388.016C224.092 388.465 225.33 388.838 226.842 388.845C230.122 388.859 238.833 391.089 241.789 392.671C242.947 393.29 245.851 393.984 248.243 394.211C255.419 394.894 261.525 396.054 262.674 396.952C263.269 397.418 266.869 398.004 270.674 398.255C274.479 398.505 280.967 399.37 285.092 400.177C289.217 400.984 296.461 401.698 301.189 401.764C305.917 401.83 311.094 402.26 312.692 402.718C315.512 403.527 371.007 402.41 382.092 401.321C395.804 399.974 398.227 396.259 394.502 382.293C393.628 379.015 392.808 375.883 392.679 375.333C392.551 374.783 391.678 372.559 390.74 370.391C389.802 368.223 388.774 365.298 388.456 363.891C388.139 362.484 387.042 359.533 386.02 357.333C377.527 339.049 383.167 329.276 395.673 340.608C396.728 341.565 398.805 342.886 400.288 343.544C401.771 344.203 404.696 346.237 406.788 348.064C408.88 349.892 411.853 352.026 413.394 352.807C414.935 353.588 417.635 355.708 419.394 357.519C421.153 359.33 422.967 360.816 423.425 360.822C424.58 360.837 443.412 375.756 444.374 377.418C444.804 378.161 446.671 379.489 448.524 380.368C450.376 381.247 453.174 383.273 454.742 384.872C456.309 386.47 458.052 387.79 458.615 387.805C459.177 387.821 461.877 389.295 464.615 391.083C467.352 392.871 470.829 394.885 472.34 395.561C473.852 396.236 477.002 398.486 479.34 400.561C481.679 402.635 484.469 404.818 485.542 405.41C494.647 410.441 493.046 421.193 482.277 427.333C468.149 435.388 463.497 438.627 441.514 455.715C408.267 481.557 391.175 492.833 385.25 492.833C381.033 492.833 380.181 483.61 383.748 476.583C384.515 475.07 384.934 473.833 384.677 473.833C383.918 473.833 388.76 460.27 390.438 457.699C393.366 453.21 395.999 436.854 394.703 431.202C393.85 427.483 389.046 426.186 381.862 427.738C371.798 429.91 290.222 428.34 284.592 425.866C283.492 425.382 278.457 424.758 273.403 424.479C268.349 424.199 261.599 423.306 258.403 422.493C255.207 421.68 248.992 420.48 244.592 419.825C240.192 419.171 236.131 418.259 235.567 417.798C235.003 417.338 232.384 416.702 229.747 416.385C227.11 416.069 222.396 414.889 219.272 413.764C216.148 412.639 211.792 411.326 209.592 410.846C204.588 409.754 188.338 403.573 182.204 400.429C179.667 399.128 174.892 396.847 171.592 395.359C164.833 392.312 147.662 381.955 144.546 379.046C143.421 377.995 141.987 376.955 141.358 376.734C137.958 375.54 112.092 350.763 112.092 348.7C112.092 348.136 110.179 345.747 107.842 343.39C100.693 336.183 82.1148 302.55 82.0968 296.783C82.0938 295.93 81.6649 294.805 81.1439 294.283C80.6219 293.76 79.5089 290.858 78.6699 287.833C77.8309 284.808 76.1838 279.633 75.0098 276.333C69.4528 260.716 66.4828 229.541 69.0568 213.833C69.6418 210.258 70.2949 205.983 70.5069 204.333C70.7189 202.683 71.6328 198.633 72.5368 195.333C73.4418 192.033 74.8399 186.935 75.6449 184.005C86.1839 145.609 122.668 102.423 163.092 80.4913C176.682 73.1183 212.381 62.2833 220.092 63.1913C222.017 63.4173 224.717 63.2243 226.092 62.7603C227.467 62.2973 231.517 62.1843 235.092 62.5093C238.667 62.8343 244.292 63.2443 247.592 63.4203ZM245.762 99.9183C273.071 103.709 299.466 120.426 305.929 138.022C324.555 188.738 308.607 222.763 263.87 227.751C234.736 231 194.352 218.692 165.423 197.747C160.93 194.494 156.693 191.833 156.007 191.833C155.32 191.833 155.037 191.554 155.378 191.214C155.718 190.874 154.266 189.15 152.152 187.383C134.774 172.864 125.984 158.084 130.579 151.109C143.541 131.43 170.306 112.377 196.152 104.43C206.687 101.191 230.422 97.6273 235.762 98.4833C236.955 98.6743 241.455 99.3203 245.762 99.9183Z" fill="black"/>
<path fill-rule="evenodd" clip-rule="evenodd" d="M141.092 328.146C141.092 328.318 142.555 329.781 144.342 331.396C147.592 334.333 147.592 334.333 144.655 331.083C141.917 328.054 141.092 327.373 141.092 328.146ZM131.592 337.833C131.932 338.383 132.435 338.833 132.71 338.833C132.985 338.833 132.932 338.383 132.592 337.833C132.252 337.283 131.749 336.833 131.474 336.833C131.199 336.833 131.252 337.283 131.592 337.833ZM111.592 364.833C111.932 365.383 112.435 365.833 112.71 365.833C112.985 365.833 112.932 365.383 112.592 364.833C112.252 364.283 111.749 363.833 111.474 363.833C111.199 363.833 111.252 364.283 111.592 364.833ZM499.592 401.833C499.932 402.383 500.435 402.833 500.71 402.833C500.985 402.833 500.932 402.383 500.592 401.833C500.252 401.283 499.749 400.833 499.474 400.833C499.199 400.833 499.252 401.283 499.592 401.833ZM496.497 426.988C496.054 427.703 496.222 427.871 496.937 427.428C497.572 427.036 498.092 426.517 498.092 426.274C498.092 425.44 497.209 425.835 496.497 426.988Z" fill="black"/>
</svg>
